<svg width="114" height="111" viewBox="0 0 114 111" fill="none" xmlns="http://www.w3.org/2000/svg">
<g clip-path="url(#clip0)">
<path opacity="0.1" d="M112.55 32.0188C112.53 32.138 112.511 32.2572 112.489 32.3751C111.804 36.4276 110.685 40.3326 109.02 43.9188C108.965 44.0381 108.91 44.1573 108.853 44.2765C107.756 46.5839 106.443 48.7105 104.943 50.609C104.114 51.6593 103.21 52.6573 102.134 53.3767C100.627 54.3868 98.8658 54.7967 97.1346 55.1316C95.3365 55.4813 93.5134 55.7733 91.6955 56.0881C91.0495 56.198 90.4074 56.3145 89.7691 56.4378C88.0128 56.7713 86.269 57.1572 84.567 57.6689C82.463 58.2999 80.4238 59.1264 78.4973 60.2892C78.3434 60.3786 78.1913 60.4732 78.041 60.5732C77.8906 60.6697 77.7392 60.7675 77.5909 60.8666C77.4427 60.9658 77.2965 61.0649 77.1514 61.1667C77.0762 61.219 77.001 61.2712 76.9269 61.3261C76.8527 61.3811 76.7796 61.4293 76.7076 61.4829C76.4904 61.6383 76.2774 61.7977 76.0644 61.9584L76.056 61.9651C75.9151 62.071 75.7762 62.1795 75.6384 62.288C74.8511 62.9015 74.0805 63.5419 73.3099 64.1863L72.8254 64.5882L72.0746 65.2111C71.9284 65.333 71.7791 65.4549 71.6319 65.5755C71.5275 65.6639 71.4231 65.7523 71.3092 65.8434C70.7621 66.2855 70.2076 66.7195 69.6386 67.1335C69.5039 67.2326 69.3681 67.3317 69.2314 67.4282C68.0816 68.2511 66.8792 68.9467 65.6373 69.5073L65.6206 69.5154C64.9958 69.795 64.3584 70.0258 63.7119 70.2066C63.3391 70.3111 62.9653 70.3968 62.5873 70.4625C61.5769 70.6463 60.5524 70.6647 59.5384 70.5174C57.5471 70.2213 55.6812 69.2407 53.691 68.9098C49.5937 68.24 45.6144 70.3982 41.7614 72.0888C40.814 72.5041 39.8597 72.893 38.8983 73.2556C38.2593 73.4981 37.6182 73.7272 36.9718 73.9482C33.0119 75.2905 28.9705 76.1998 24.8909 76.6664C23.1855 76.8808 21.4699 76.9296 19.7588 76.8124C19.1083 76.7615 18.4651 76.6784 17.8333 76.5444C15.6719 76.1158 13.6567 75.2169 12.0299 73.5704C10.6975 72.2187 9.74418 70.4571 9.01849 68.6138C8.27562 66.7328 7.75112 64.7227 7.46164 62.647C7.42196 62.3643 7.38646 62.0803 7.35722 61.7963C7.30501 61.3105 7.26603 60.822 7.24027 60.3308C7.09978 57.7126 7.34346 55.0838 7.95866 52.5809C8.64781 49.7784 9.79639 47.0884 10.3018 44.2645C10.3227 44.1448 10.3425 44.0256 10.3613 43.9068C10.4303 43.4779 10.4815 43.0445 10.5148 42.6087C10.7727 39.139 9.78386 35.7564 9.00805 32.3631C8.9809 32.2452 8.95375 32.126 8.92764 32.0067C8.84411 31.6299 8.76406 31.2534 8.68749 30.8774C7.9691 27.2899 7.76966 23.4491 8.40974 19.8682C8.42958 19.749 8.45359 19.6298 8.47656 19.5119C8.90507 17.2484 9.71087 15.1309 10.8385 13.3053C12.0372 11.3763 13.6107 9.77003 15.2918 8.35939C16.1112 7.67171 16.9583 7.02913 17.8333 6.43165C18.4598 6.00296 19.1016 5.59705 19.7588 5.21391C25.0266 2.13274 31.0358 0.628319 36.9781 0.96055C37.2914 0.977966 37.6046 0.9994 37.9179 1.02887C38.2311 1.05834 38.5736 1.09317 38.9015 1.13202C42.7294 1.60894 46.4539 2.75969 50.1524 4.01761C51.3918 4.4396 52.6291 4.8723 53.8654 5.29697C54.4157 5.48452 54.9649 5.67207 55.5152 5.85426C58.2102 6.7478 60.9449 7.55694 63.714 8.16112C64.3551 8.30312 64.9969 8.43262 65.6394 8.54962C67.8702 8.97025 70.1191 9.21497 72.3732 9.2824C73.2496 9.30473 74.1264 9.2949 75.0035 9.25293C75.4462 9.23239 75.8893 9.20158 76.3327 9.16049C80.9114 8.74654 85.3366 7.36136 89.7691 6.06726C90.4102 5.87971 91.0523 5.69484 91.6955 5.51265C92.5392 5.2742 93.3829 5.04378 94.2308 4.83077C99.5069 3.50051 104.21 4.26545 109.115 7.01037C110.231 7.6333 111.345 8.38618 112.028 9.55569C112.71 10.7252 112.882 12.1613 113.009 13.5478C113.19 15.5224 113.308 17.5225 113.353 19.5333C113.353 19.6512 113.353 19.7705 113.359 19.8897C113.43 23.9515 113.194 28.0521 112.55 32.0188Z" fill="#03A5EC"/>
<path opacity="0.1" d="M77.5512 43.9189H77.2067V44.077V44.2766H77.5972L77.5512 43.9189ZM73.6429 43.9189C73.6424 43.922 73.6424 43.9252 73.6429 43.9282C73.6335 44.026 73.6231 44.1238 73.6126 44.223V44.2498V44.2766H76.599V44.2551L76.8078 43.9189H73.6429ZM65.6394 43.9189V32.3752H69.0747C69.0381 32.3444 69.0006 32.3122 68.9619 32.2828L68.9118 32.2412L68.8471 32.1903C68.8095 32.1622 68.7719 32.1341 68.7322 32.1073C68.6925 32.0805 68.6685 32.0617 68.6351 32.0389L68.6121 32.0229H68.6069H65.6394V31.3865L65.559 31.4267L65.4744 31.4776H65.4681L65.4504 31.4897L65.3971 31.5259L65.3439 31.562C65.2917 31.5982 65.2395 31.6384 65.1873 31.6799L65.1371 31.7228L65.0327 31.8085C64.898 31.9237 64.7654 32.0443 64.6286 32.1568C64.5942 32.185 64.5597 32.2131 64.5242 32.2385C64.4501 32.2948 64.3739 32.3484 64.2955 32.3966C64.2621 32.4181 64.2298 32.4368 64.1911 32.4542L64.1347 32.4824L64.0825 32.5051C63.96 32.5598 63.8343 32.6019 63.7066 32.6311V43.9162H58.5558C58.5558 43.9296 58.5631 43.9403 58.5662 43.9537C58.5944 44.0609 58.6226 44.1667 58.6497 44.2739H63.7139V56.6468C63.7404 56.6468 63.7665 56.6468 63.7923 56.6468L63.8831 56.6535L64.047 56.6656L64.3091 56.7057L64.4292 56.7205L64.5597 56.7379H64.5796L64.8103 56.7741L64.8594 56.7821L64.9711 56.8022L65.1309 56.8317L65.5141 56.8102L65.5663 56.8223C65.5872 56.8223 65.6091 56.8303 65.631 56.8357V44.2766H73.6022V44.2498V44.223C73.6126 44.1238 73.6231 44.026 73.6325 43.9282C73.632 43.9252 73.632 43.922 73.6325 43.9189H65.6394ZM77.5512 43.9189H77.2067V44.077V44.2766H77.5972L77.5512 43.9189ZM73.4278 43.9189C73.4153 44.0381 73.4038 44.1573 73.3913 44.2766H76.7211L76.9477 43.9189H73.4278ZM65.6394 43.9189V32.3752H69.0747C69.0381 32.3444 69.0006 32.3122 68.9619 32.2828L68.9118 32.2412L68.8471 32.1903C68.8095 32.1622 68.7719 32.1341 68.7322 32.1073C68.6925 32.0805 68.6685 32.0617 68.6351 32.0389L68.6121 32.0229H68.6048H65.6394V31.3865L65.559 31.4267L65.4744 31.4776H65.4681L65.4504 31.4897L65.3971 31.5259L65.3439 31.562C65.2917 31.5982 65.2395 31.6384 65.1873 31.6799L65.1371 31.7228L65.0327 31.8085C64.898 31.9237 64.7654 32.0443 64.6286 32.1568C64.5942 32.185 64.5597 32.2131 64.5242 32.2385C64.4501 32.2948 64.3739 32.3484 64.2955 32.3966C64.2621 32.4181 64.2298 32.4368 64.1911 32.4542L64.1347 32.4824L64.0825 32.5051C63.96 32.5598 63.8343 32.6019 63.7066 32.6311V43.9162H58.5558C58.5558 43.9296 58.5631 43.9403 58.5662 43.9537C58.5944 44.0595 58.6236 44.1667 58.6508 44.2739H63.7139V56.6455H63.7923L63.8831 56.6522L64.047 56.6642L64.3091 56.7057L64.4292 56.7205L64.5597 56.7379H64.5796L64.8103 56.7741L64.8594 56.7821L64.9711 56.8022L65.1309 56.8317L65.5141 56.8102L65.5663 56.8223C65.5872 56.8223 65.6091 56.8303 65.631 56.8357V44.2766H73.3934C73.4059 44.1573 73.4174 44.0381 73.4299 43.9189H65.6394ZM91.6955 19.8804H113.359C113.359 19.7611 113.359 19.6419 113.353 19.524H91.6955V5.50868C91.0523 5.6873 90.4101 5.87217 89.769 6.06329V19.524H66.2085L66.1489 19.4557L66.2387 19.3539L75.0024 9.2503C74.1253 9.29317 73.2486 9.30299 72.3722 9.27977L65.6383 17.0417V8.54967C64.9951 8.43267 64.3533 8.30317 63.7129 8.16117V16.6505L53.8675 5.29702C52.6312 4.87235 51.3938 4.43965 50.1544 4.01766L63.5437 19.4557L63.4842 19.524H38.9045V1.14413C38.5767 1.10483 38.2488 1.07045 37.9209 1.04098C37.6077 1.01151 37.2944 0.990072 36.9812 0.972656V19.524H19.7587V5.22602C19.1085 5.60826 18.4667 6.01417 17.8333 6.44375V19.524H8.47649C8.45352 19.6419 8.42951 19.7611 8.40967 19.8804H17.8333V32.0188H8.92758C8.95368 32.1381 8.98083 32.2573 9.00798 32.3752H17.8333V43.9189H10.3612C10.3424 44.0377 10.3226 44.1569 10.3017 44.2766H17.8333V76.5525C18.4598 76.6771 19.1082 76.7642 19.7587 76.8205V44.2766H36.9781V73.9536C37.6244 73.7326 38.2655 73.5035 38.9045 73.261V44.2766H63.7139V70.2053C64.3605 70.0245 64.9979 69.7937 65.6227 69.5141L65.6394 69.506V44.2766H89.769V56.4378C90.4095 56.3173 91.0516 56.2016 91.6955 56.0909V44.2766H108.853C108.91 44.1573 108.965 44.0381 109.02 43.9189H91.6955V32.3752H112.489C112.511 32.2573 112.53 32.1381 112.55 32.0188H91.6955V19.8804ZM19.7587 19.8804H36.9781V32.0188H19.7587V19.8804ZM19.7587 43.9189V32.3752H36.9781V43.9189H19.7587ZM38.9045 19.8804H63.7139V32.0188H38.9045V19.8804ZM38.9045 43.9189V32.3752H63.7139V43.9189H38.9045ZM89.769 43.9189H65.6394V32.3752H89.769V43.9189ZM89.769 32.0188H65.6394V20.2059L65.9777 19.8804H89.769V32.0188ZM73.6429 43.9189C73.6424 43.922 73.6424 43.9252 73.6429 43.9282C73.6335 44.026 73.6231 44.1238 73.6126 44.223V44.2498V44.2766H76.599V44.2551L76.8078 43.9189H73.6429ZM77.5512 43.9189H77.2067V44.077V44.2766H77.5972L77.5512 43.9189ZM65.6394 43.9189V32.3752H69.0747C69.0381 32.3444 69.0006 32.3122 68.9619 32.2828L68.9118 32.2412L68.8471 32.1903C68.8095 32.1622 68.7719 32.1341 68.7322 32.1073C68.6925 32.0805 68.6685 32.0617 68.6351 32.0389L68.6121 32.0229H68.6069H65.6394V31.3865L65.559 31.4267L65.4744 31.4776H65.4681L65.4504 31.4897L65.3971 31.5259L65.3439 31.562C65.2917 31.5982 65.2395 31.6384 65.1873 31.6799L65.1371 31.7228L65.0327 31.8085C64.898 31.9237 64.7654 32.0443 64.6286 32.1568C64.5942 32.185 64.5597 32.2131 64.5242 32.2385C64.4501 32.2948 64.3739 32.3484 64.2955 32.3966C64.2621 32.4181 64.2298 32.4368 64.1911 32.4542L64.1347 32.4824L64.0825 32.5051C63.96 32.5598 63.8343 32.6019 63.7066 32.6311V43.9162H58.5558C58.5558 43.9296 58.5631 43.9403 58.5662 43.9537C58.5944 44.0609 58.6226 44.1667 58.6497 44.2739H63.7139V56.6468C63.7404 56.6468 63.7665 56.6468 63.7923 56.6468L63.8831 56.6535L64.047 56.6656L64.3091 56.7057L64.4292 56.7205L64.5597 56.7379H64.5796L64.8103 56.7741L64.8594 56.7821L64.9711 56.8022L65.1309 56.8317L65.5141 56.8102L65.5663 56.8223C65.5872 56.8223 65.6091 56.8303 65.631 56.8357V44.2766H73.6022V44.2498V44.223C73.6126 44.1238 73.6231 44.026 73.6325 43.9282C73.632 43.9252 73.632 43.922 73.6325 43.9189H65.6394Z" fill="#03A5EC"/>
<path opacity="0.1" d="M28.0381 11.5235H28.1874C28.1382 11.4968 28.0953 11.4538 28.0632 11.399C28.0311 11.3442 28.0109 11.2794 28.0047 11.2114C28.0047 10.9649 28.2918 10.7639 28.6426 10.7639H33.1075C33.4583 10.7639 33.7444 10.9649 33.7444 11.2114C33.7444 11.4565 33.4583 11.6588 33.1075 11.6588H32.9582C33.0074 11.685 33.0503 11.7277 33.0825 11.7823C33.1146 11.837 33.1348 11.9016 33.1409 11.9696C33.1409 12.1799 32.9321 12.3568 32.6533 12.4036H33.9387C34.2884 12.4036 34.5756 12.6046 34.5756 12.8511C34.5756 13.0976 34.2884 13.2985 33.9387 13.2985H29.4727C29.123 13.2985 28.8358 13.0962 28.8358 12.8511C28.8358 12.6408 29.0446 12.4653 29.3234 12.417H28.0381C27.6872 12.417 27.4011 12.2161 27.4011 11.9696C27.4011 11.7231 27.6872 11.5235 28.0381 11.5235Z" fill="#03A5EC"/>
<path opacity="0.1" d="M76.4289 15.7796H76.5783C76.5292 15.7527 76.4866 15.7097 76.4547 15.6549C76.4228 15.6 76.4028 15.5354 76.3966 15.4675C76.3966 15.221 76.6827 15.02 77.0335 15.02H81.4984C81.8492 15.02 82.1363 15.221 82.1363 15.4675C82.1363 15.7126 81.8492 15.9136 81.4984 15.9136H81.3501C81.3991 15.9405 81.4417 15.9835 81.4736 16.0383C81.5055 16.0931 81.5256 16.1578 81.5318 16.2257C81.5318 16.436 81.3229 16.6129 81.0442 16.6597H82.3295C82.6804 16.6597 82.9665 16.8607 82.9665 17.1072C82.9665 17.3537 82.6804 17.5546 82.3295 17.5546H77.8647C77.5138 17.5546 77.2267 17.3523 77.2267 17.1072C77.2267 16.8969 77.4355 16.72 77.7143 16.6731H76.4289C76.0791 16.6731 75.792 16.4722 75.792 16.2257C75.792 15.9792 76.0791 15.7796 76.4289 15.7796Z" fill="#03A5EC"/>
<path opacity="0.1" d="M21.1851 33.9935H21.3334C21.2843 33.9667 21.2416 33.9237 21.2097 33.8688C21.1778 33.814 21.1578 33.7493 21.1517 33.6813C21.1517 33.4362 21.4388 33.2339 21.7886 33.2339H26.2545C26.6043 33.2339 26.8915 33.4362 26.8915 33.6813C26.8915 33.9278 26.6043 34.1288 26.2545 34.1288H26.1052C26.1543 34.1551 26.1971 34.1978 26.229 34.2524C26.261 34.3071 26.2809 34.3717 26.2869 34.4396C26.2869 34.6499 26.0781 34.8267 25.7993 34.8736H27.0846C27.4355 34.8736 27.7226 35.0759 27.7226 35.321C27.7226 35.5662 27.4355 35.7685 27.0846 35.7685H22.624C22.2731 35.7685 21.987 35.5675 21.987 35.321C21.987 35.1121 22.1959 34.9352 22.4746 34.887H21.1851C20.8343 34.887 20.5471 34.6861 20.5471 34.4396C20.5471 34.1931 20.8384 33.9935 21.1851 33.9935Z" fill="#03A5EC"/>
<path opacity="0.1" d="M105.256 81.732C106.006 77.0231 96.8233 70.6387 84.7453 67.472C72.6673 64.3052 62.2681 65.5553 61.518 70.2642C60.768 74.973 69.9511 81.3574 82.0291 84.5242C94.1071 87.6909 104.506 86.4408 105.256 81.732Z" fill="#03A5EC"/>
<path d="M80.8655 51.56C80.8655 51.56 82.0527 44.0834 86.5854 44.776C86.5854 44.776 89.7179 45.052 90.3622 47.683V53.4984L80.8655 51.56Z" fill="#3A3768"/>
<path d="M105.689 54.3304L65.3242 50.0369L60.144 51.4221L60.4677 60.6991L60.8207 60.754L61.2227 74.6849L100.831 83.8226L105.041 79.2531V64.1513L105.58 63.7454L105.689 54.3304Z" fill="#D48A9B"/>
<path opacity="0.05" d="M105.743 54.3303L105.634 63.7453L101.263 66.3764L101.209 56.5447L105.743 54.3303Z" fill="black"/>
<path opacity="0.05" d="M105.041 64.1609L105.094 78.9773L100.885 83.5468L101.156 66.3767L105.041 64.1609Z" fill="black"/>
<path opacity="0.05" d="M60.875 61.3087L101.188 67.6198L101.209 66.4221L60.8447 60.8372L60.875 61.3087Z" fill="black"/>
<path opacity="0.05" d="M105.041 64.7048V64.1609L101.047 66.4222V67.6225L105.041 64.7048Z" fill="black"/>
<path d="M60.0896 51.4221L65.2697 50.0369L105.634 54.3304L101.101 56.5449L60.0896 51.4221Z" fill="#EFC6CD"/>
<path opacity="0.1" d="M101.334 54.5969L103.315 54.763L100.032 56.0236L98.3604 55.8696L101.334 54.5969Z" fill="black"/>
<path d="M101.334 54.4858L103.315 54.652L100.032 55.9139L98.3604 55.7585L101.334 54.4858Z" fill="white"/>
<path d="M101.097 54.7713C101.175 54.7284 101.258 54.8101 101.342 54.8302C101.39 54.8423 101.439 54.8302 101.487 54.8423C101.584 54.8584 101.68 54.9414 101.773 54.8999" fill="#D3DAE1"/>
<path d="M100.995 54.8476C101.072 54.8047 101.156 54.8851 101.239 54.9065C101.287 54.9173 101.336 54.9065 101.384 54.9173C101.481 54.9347 101.577 55.0177 101.67 54.9762" fill="#D3DAE1"/>
<path d="M100.759 55.0004C100.837 54.9576 100.921 55.038 101.004 55.0581C101.051 55.0701 101.102 55.0581 101.149 55.0701C101.247 55.0875 101.343 55.1706 101.435 55.1277" fill="#D3DAE1"/>
<path opacity="0.1" d="M92.7721 53.3459L94.7529 53.5134L91.47 54.774L89.7983 54.6186L92.7721 53.3459Z" fill="black"/>
<path d="M92.7721 53.2358L94.7529 53.402L91.47 54.6626L89.7983 54.5085L92.7721 53.2358Z" fill="white"/>
<path d="M92.5352 53.5214C92.6135 53.4786 92.696 53.5589 92.7795 53.5804C92.8275 53.5911 92.8766 53.5804 92.9246 53.5911C93.0217 53.6085 93.1178 53.6916 93.2107 53.65" fill="#D3DAE1"/>
<path d="M92.4329 53.5979C92.5101 53.555 92.5937 53.6354 92.6772 53.6555C92.7252 53.6675 92.7743 53.6555 92.8223 53.6675C92.9194 53.6849 93.0155 53.768 93.1084 53.7251" fill="#D3DAE1"/>
<path d="M92.1968 53.7491C92.2751 53.7062 92.3586 53.7879 92.4422 53.808C92.4891 53.8201 92.5393 53.808 92.5863 53.8201C92.6844 53.8362 92.7805 53.9206 92.8724 53.8777" fill="#D3DAE1"/>
<path opacity="0.1" d="M96.8788 53.9717L98.8606 54.1378L95.5778 55.3997L93.905 55.2443L96.8788 53.9717Z" fill="black"/>
<path d="M96.8788 53.8616L98.8606 54.0277L95.5778 55.2883L93.905 55.1329L96.8788 53.8616Z" fill="white"/>
<path d="M96.6418 54.1469C96.7202 54.1041 96.8037 54.1844 96.8872 54.2045C96.9342 54.2166 96.9833 54.2045 97.0313 54.2166C97.1284 54.2327 97.2255 54.3171 97.3174 54.2742" fill="#D3DAE1"/>
<path d="M96.5393 54.222C96.6176 54.1791 96.7012 54.2608 96.7847 54.2809C96.8317 54.293 96.8808 54.2809 96.9288 54.293C97.0259 54.3091 97.123 54.3935 97.2149 54.3506" fill="#D3DAE1"/>
<path d="M96.3044 54.3747C96.3817 54.3318 96.4652 54.4122 96.5488 54.4336C96.5968 54.4444 96.6459 54.4336 96.6939 54.4444C96.791 54.4618 96.8871 54.5448 96.98 54.5033" fill="#D3DAE1"/>
<path opacity="0.1" d="M52.0329 106.017C63.7095 106.017 73.1752 103.517 73.1752 100.433C73.1752 97.3492 63.7095 94.8494 52.0329 94.8494C40.3564 94.8494 30.8906 97.3492 30.8906 100.433C30.8906 103.517 40.3564 106.017 52.0329 106.017Z" fill="#03A5EC"/>
<path d="M75.1851 54.7083C74.9595 52.1657 74.0668 49.7396 74.0668 49.7396L74.1347 48.8822C74.1347 48.8822 74.1493 48.4535 74.1273 47.8105C74.1297 47.409 74.1708 47.0095 74.2495 46.6209C74.4322 45.8774 74.0208 44.9638 73.9749 44.8794C73.929 44.795 73.9979 43.1646 73.5865 42.3649C73.1751 41.5651 70.4352 40.0781 70.4352 40.0781C70.4352 40.0781 70.2879 39.6829 70.0802 39.2207L70.099 39.1738C69.929 38.7782 69.7182 38.4136 69.4725 38.0901C69.3043 37.8597 69.1425 37.7284 69.012 37.7927C68.9589 37.5703 68.9184 37.3433 68.8909 37.1135C68.918 37.1229 68.9462 37.1322 68.9733 37.1389C69.0864 37.1726 69.2037 37.1762 69.3179 37.1496C69.5727 37.076 69.7418 36.7826 69.8839 36.5066C70.5918 35.1268 71.2016 33.613 71.3258 31.98C71.3592 31.6467 71.3469 31.3084 71.2893 30.9806C71.2306 30.7257 71.1486 30.4807 71.045 30.2505C70.862 29.7782 70.6301 29.3398 70.3558 28.947C69.8682 28.2879 69.1957 27.8847 68.5045 27.6462C67.7258 27.3776 66.9146 27.2998 66.1134 27.4171C65.9045 27.448 65.6957 27.4922 65.4869 27.5096C65.222 27.5246 64.9566 27.5187 64.6923 27.4922L63.3254 27.3904L63.3192 27.3636L63.0916 27.3461C63.0018 27.5752 63.0915 27.8472 63.2033 28.0615C63.315 28.2759 63.4434 28.4996 63.434 28.7528C63.4246 29.006 63.2816 29.2096 63.1699 29.4226C63.0581 29.6356 62.9736 29.9142 63.0853 30.1232C63.101 30.1521 63.1196 30.1782 63.1406 30.2009C63.2586 30.3577 63.4643 30.3751 63.6429 30.3724H63.6742C63.2245 31.1322 62.9814 32.0602 62.9819 33.0142C62.9849 33.8294 63.1628 34.6279 63.496 35.3221C63.8291 36.0163 64.3048 36.5795 64.8708 36.95C64.8907 37.0371 64.9105 37.1269 64.9293 37.218C65.1363 38.1589 65.2105 39.1398 65.1486 40.1143L65.1245 40.1813L65.1099 40.1102C65.1099 40.1102 63.4998 41.5115 63.0216 41.8826C62.5434 42.2537 62.063 43.5116 62.0401 43.8545C62.0171 44.1975 61.2632 49.3699 61.2632 49.3699C61.11 49.8909 60.9837 50.4243 60.8852 50.9667L59.9236 52.0505C59.9236 52.0505 57.9396 52.2796 57.3653 52.1081L57.382 52.2501C56.8756 52.1018 56.3598 52.0121 55.8409 51.9822C55.5574 51.9354 55.2694 51.9848 55.0055 52.1255L54.9857 52.1376L54.97 52.1469C54.6677 52.1999 54.3725 52.3063 54.0929 52.4631C54.0595 52.4805 54.0292 52.4979 54 52.5153L54.0063 52.3398L51.8595 52.1978L50.7631 51.9125C50.7631 51.9125 50.3746 51.5106 50.146 51.5695C49.9173 51.6285 49.438 51.2266 49.438 51.2266C49.3287 51.1167 49.2104 51.0223 49.0851 50.9453C49.0486 50.6211 49.0256 50.4241 49.0256 50.4241C49.0256 50.4241 48.1725 46.081 47.5335 43.5277C47.1054 41.8223 46.4893 40.9824 46.1259 40.6166C45.9641 40.2549 45.8576 40.0218 45.8576 40.0218C45.7876 39.7084 45.4034 39.0024 45.3052 38.985C45.2896 38.9528 45.2781 38.9367 45.2718 38.9367C45.2508 38.9338 45.2296 38.938 45.2102 38.9488C45.0306 37.802 44.9262 36.3646 45.2008 35.112C45.5767 34.7157 45.8797 34.2176 46.088 33.6534C46.2963 33.0892 46.4048 32.473 46.4058 31.8487C46.4058 31.8299 46.4058 31.8112 46.4058 31.7924C46.4058 31.7737 46.4058 31.7536 46.4058 31.7348C46.4056 30.7392 46.1307 29.7759 45.63 29.0153L45.5945 28.9644C45.604 28.9558 45.613 28.9464 45.6216 28.9363C45.7001 28.8547 45.7598 28.7473 45.7946 28.6256C45.8293 28.5039 45.8377 28.3724 45.819 28.245C45.772 27.9878 45.6153 27.7856 45.5349 27.5417C45.4866 27.354 45.4479 27.1625 45.419 26.9684C45.3575 26.6926 45.2446 26.4402 45.0901 26.2329L45.1058 26.2865C44.6965 25.6957 43.9927 25.4023 43.3589 25.5336C42.888 25.6301 42.4494 25.9114 41.9764 25.9985C41.6371 26.0601 41.2914 26.0199 40.95 26.0641C40.6332 26.1059 40.3248 26.2202 40.0395 26.4017C39.965 26.4424 39.8988 26.5048 39.8463 26.5839C39.7978 26.6899 39.7652 26.8067 39.7503 26.9282C39.6344 27.4707 39.2668 27.8579 39.0005 28.3107C38.6964 28.828 38.5203 29.4506 38.4952 30.0978C38.4848 30.2623 38.4971 30.4278 38.5317 30.5867C38.5547 30.6819 38.5902 30.7716 38.6069 30.8681C38.6591 31.1628 38.539 31.4562 38.4806 31.7482C38.4069 32.1208 38.433 32.5143 38.5547 32.8655C38.9671 34.0497 40.3214 34.4449 40.6033 35.6881C40.819 35.8153 41.0469 35.9054 41.281 35.956C41.2998 36.0793 41.3165 36.2039 41.3301 36.3298C41.3237 36.3332 41.3178 36.3377 41.3123 36.3432C40.9469 36.8 40.856 37.6828 40.856 37.6828L40.8122 37.7284C40.6629 37.8864 40.1523 38.4169 39.6907 38.8255C39.1426 39.3118 38.2289 40.9408 37.5899 41.4271C36.9508 41.9134 36.4246 44.9102 36.5624 45.9993C36.7002 47.0884 37.2704 50.1428 37.0417 51.2574C36.813 52.372 37.3842 57.4586 37.3842 57.4586C37.7675 57.5523 38.1424 57.695 38.5035 57.8846L38.492 58.107L38.4576 58.7768C38.4576 58.7768 37.4228 63.5781 37.8185 67.2742C38.2143 70.9702 37.6358 71.3507 37.6358 71.3507C37.6358 71.3507 37.7569 72.9891 37.4531 73.5611C37.1492 74.1331 37.0876 75.3897 37.0876 75.3897C37.0876 75.3897 37.0574 78.2096 37.1179 79.0067C37.1785 79.8038 37.2088 81.256 36.9957 81.5989C36.7827 81.9419 36.387 84.1885 36.4173 84.8744C36.4476 85.5603 35.6561 87.1236 36.0821 89.1425C36.5081 91.1613 34.8291 91.2001 34.8291 91.2001C34.8291 91.2001 35.0432 94.2813 35.4995 95.1628L35.5663 95.2887C35.5548 95.3396 35.5433 95.3932 35.5308 95.4508C35.3585 96.2546 35.1225 97.5233 35.2864 97.83C35.5297 98.2882 35.6519 98.2105 35.6519 98.2105L35.7427 100.268C35.7427 100.268 37.57 102.25 38.9713 102.174C40.3726 102.099 40.098 100.268 40.098 100.268L38.9045 96.2975L38.8638 96.1635L40.1899 92.9484C40.1899 92.9484 40.5553 91.5391 40.6462 91.0434C40.737 90.5478 41.233 88.7915 41.233 88.7915C41.233 88.7915 42.486 84.9815 42.5121 84.5234C42.5382 84.0652 42.6342 81.5909 42.8775 81.0939C43.1208 80.5969 43.7912 77.7448 43.7912 77.7448L43.8079 77.7635C43.9216 77.9069 44.0028 78.0872 44.0429 78.2851C44.083 78.4831 44.0805 78.6913 44.0355 78.8875C43.882 79.6109 43.9739 81.0966 43.9739 81.0966C43.9739 81.0966 43.9133 82.3545 43.7912 83.0029C43.669 83.6513 43.6398 88.9469 43.8528 90.2035C44.023 91.2095 44.0178 93.0931 44.0094 93.8058C43.8664 94.5627 43.7411 95.5031 43.9739 95.6143C44.3707 95.8058 46.3807 95.767 46.3807 95.767C46.3807 95.767 47.2328 95.3852 48.3907 96.7195C49.5487 98.0538 53.1104 96.339 53.1104 96.339C53.1104 96.339 54.2067 95.9572 52.0443 94.8534C50.5354 94.0831 49.5612 93.57 48.9243 93.0207C48.9389 92.9846 48.9546 92.9484 48.9682 92.9095C48.9682 92.9095 48.0848 91.8378 48.8157 89.9382C49.5466 88.0386 49.5163 86.4324 49.5163 86.4324L49.6385 80.0302L49.2731 71.5315L48.9901 62.6122L49.0402 62.5908C49.0882 64.2305 49.3378 68.1342 50.644 67.3773C52.2886 66.4248 50.8873 63.9478 50.8873 63.9478L50.1491 62.1018L50.3694 62.0053L49.5435 58.5812C49.4642 57.9129 49.4537 57.2342 49.5122 56.5624C49.5285 56.1694 49.5222 55.7753 49.4934 55.3835C50.5751 55.141 51.6109 54.8838 51.7968 54.9428C52.0161 55.0111 53.243 55.0245 53.7254 55.0272C53.5677 55.1852 53.4414 55.342 53.4414 55.342L55.4054 57.038C55.4054 57.038 56.0716 56.5704 56.2105 56.0748C56.3472 56.0304 56.4733 55.944 56.578 55.8229C56.5989 56.4083 56.72 57.042 57.1419 57.0567C57.2474 57.0595 57.3521 57.033 57.4489 56.979L60.6607 56.1632L60.3851 58.3722L60.5772 58.8103C60.4801 60.6737 60.3684 62.6524 60.2702 64.3926L60.2253 64.773L60.2483 64.7798C60.0958 67.459 59.9737 69.4886 59.9737 69.4886C60.1536 69.0488 60.4327 68.6888 60.7745 68.4557L60.7954 72.4318C60.7954 72.4318 60.9562 78.7187 60.9562 79.5761C60.9562 80.4335 60.9782 82.3478 60.9782 82.3478C60.9782 82.3478 61.3217 84.6908 61.5263 85.4625C61.731 86.2341 61.8918 89.7493 61.8918 89.7493C61.8918 89.7493 62.3721 90.7206 62.1664 91.089C61.9607 91.4574 62.9663 92.2598 62.9663 92.2598C62.9663 92.2598 62.3262 93.3744 62.2802 94.1179C62.275 94.2036 62.3408 94.2947 62.4598 94.3858C62.4222 94.4247 62.3836 94.4635 62.3408 94.501C62.0443 94.7556 61.6099 94.9324 60.9562 94.86C59.1738 94.6591 57.9177 96.7744 59.0141 97.2031C60.1105 97.6318 63.3996 97.7175 63.3996 97.7175C63.3996 97.7175 64.3957 96.9204 65.1747 97.2794C65.1632 98.1181 65.1955 98.887 65.2008 98.9888L65.1914 98.9982C64.7257 99.5341 63.834 100.456 62.9631 100.832C61.7101 101.375 61.4324 103.576 63.054 103.861C64.6756 104.146 67.051 103.518 67.051 103.518C67.051 103.518 68.2842 102.347 69.2208 102.09C70.1574 101.833 70.9573 101.261 70.7975 100.575C70.6931 100.137 70.4247 98.9888 70.243 98.2172C70.2326 98.1708 70.2222 98.1261 70.2117 98.0832C70.2399 98.0028 70.2681 97.9198 70.2942 97.8341C70.2942 97.8341 69.8149 94.6337 70.2034 93.8339C70.5918 93.0341 70.3861 85.0311 70.3861 85.0311C70.3861 85.0311 69.7231 83.0029 70.0666 81.7744C70.4101 80.546 69.5184 78.8018 69.5184 78.8018C69.5184 78.8018 69.6155 75.3066 69.8765 73.3588C69.8884 73.2758 69.8999 73.1954 69.911 73.1177C70.3481 72.9512 70.774 72.7402 71.1849 72.4867C71.1849 72.4867 71.4136 68.0846 71.5503 67.0853C71.5639 66.9915 71.5827 66.8401 71.6057 66.6432L71.7101 65.9372L71.8333 65.1334L72.251 62.3938L73.0049 61.1426L74.947 58.5973C74.947 58.5973 75.4138 57.2523 75.1851 54.7083ZM45.2342 38.9903L45.2196 39.0037C45.2174 38.994 45.2156 38.9842 45.2144 38.9742C45.2204 38.9806 45.2271 38.986 45.2342 38.9903ZM64.4229 42.1103L64.3477 42.3207L64.6223 41.9697L64.2495 42.5055L64.3748 42.1679L64.4229 42.1103ZM62.5684 47.0268C62.4964 47.272 62.4191 47.5372 62.3387 47.8132L62.4859 47.2492L62.5684 47.0268Z" fill="url(#paint0_linear)"/>
<path d="M56.5761 55.0419C56.5761 55.0419 56.3203 57.2268 57.0877 57.2549C57.8552 57.2831 58.3678 55.5697 58.3678 55.5697L58.0546 54.1992L56.5761 55.0419Z" fill="#585B8A"/>
<path opacity="0.2" d="M56.5761 55.0419C56.5761 55.0419 56.3203 57.2268 57.0877 57.2549C57.8552 57.2831 58.3678 55.5697 58.3678 55.5697L58.0546 54.1992L56.5761 55.0419Z" fill="black"/>
<path d="M39.3859 102.336C38.0201 102.413 36.2388 100.433 36.2388 100.433L36.15 98.3764C36.15 98.3764 36.032 98.4527 35.794 97.9959C35.6342 97.6891 35.8639 96.4178 36.032 95.6181C36.1135 95.2269 36.1803 94.9482 36.1803 94.9482L39.177 95.9771L39.3201 96.4634L40.4833 100.431C40.4833 100.431 40.7506 102.26 39.3859 102.336Z" fill="#636992"/>
<path d="M53.1552 96.5119C53.1552 96.5119 49.6834 98.2253 48.5609 96.8923C47.4384 95.5594 46.6021 95.9398 46.6021 95.9398C46.6021 95.9398 44.6432 95.9787 44.2569 95.7871C44.0292 95.6759 44.1524 94.7234 44.2945 93.9652C44.3905 93.4414 44.4949 93.0087 44.4949 93.0087C44.4949 93.0087 47.9073 91.523 48.4419 92.4367C48.6025 92.7051 48.7944 92.9401 49.0109 93.1333C49.6291 93.7067 50.5949 94.2264 52.1226 95.0262C54.2234 96.1301 53.1552 96.5119 53.1552 96.5119Z" fill="#636992"/>
<path d="M50.0394 61.709L50.9885 64.1458C50.9885 64.1458 52.3543 66.6215 50.7515 67.5726C49.1487 68.5238 49.179 62.0908 49.179 62.0908L50.0394 61.709Z" fill="#FFD6D6"/>
<path d="M46.0623 40.5779C46.0623 40.5779 47.1012 41.1874 47.7246 43.7381C48.3479 46.2888 49.1791 50.6305 49.1791 50.6305C49.1791 50.6305 49.7429 55.5417 49.6531 56.7607C49.596 57.4321 49.6062 58.1102 49.6834 58.7782L50.4843 62.205L48.8815 62.9284L46.4183 50.8208L46.0623 40.5779Z" fill="#DCE6F2"/>
<path opacity="0.05" d="M46.0623 40.5779C46.0623 40.5779 47.1012 41.1874 47.7246 43.7381C48.3479 46.2888 49.1791 50.6305 49.1791 50.6305C49.1791 50.6305 49.7429 55.5417 49.6531 56.7607C49.596 57.4321 49.6062 58.1102 49.6834 58.7782L50.4843 62.205L48.8815 62.9284L46.4183 50.8208L46.0623 40.5779Z" fill="black"/>
<path opacity="0.1" d="M39.1772 95.9784L39.3203 96.4647L39.1448 96.8948C38.462 97.2752 36.7704 96.9711 36.7704 96.9711C36.7704 96.9711 36.4572 96.4607 36.0291 95.6207C36.1105 95.2296 36.1773 94.9509 36.1773 94.9509L39.1772 95.9784Z" fill="black"/>
<path opacity="0.1" d="M49.1197 93.3128C48.254 95.8287 45.3116 94.8949 44.494 94.5801C44.3593 94.5279 44.2852 94.493 44.2852 94.493C44.2852 94.493 44.2904 94.2881 44.2925 93.9652C44.3885 93.4414 44.4929 93.0087 44.4929 93.0087C44.4929 93.0087 47.9053 91.523 48.4399 92.4367C48.6005 92.7051 48.7924 92.9401 49.009 93.1333C49.0416 93.1972 49.0787 93.2573 49.1197 93.3128Z" fill="black"/>
<path d="M48.9705 90.1151C48.2583 92.0174 49.1198 93.085 49.1198 93.085C48.2542 95.5996 45.3117 94.6672 44.4941 94.351C44.3594 94.3001 44.2853 94.2653 44.2853 94.2653C44.2853 94.2653 44.3448 91.6369 44.137 90.3803C43.9292 89.1237 43.9585 83.8321 44.0775 83.1851C44.1965 82.538 44.255 81.2801 44.255 81.2801C44.255 81.2801 44.1663 79.7958 44.3145 79.0724C44.3592 78.877 44.3622 78.6698 44.3232 78.4723C44.2843 78.2749 44.2049 78.0945 44.0932 77.9498L44.0775 77.9297C44.0775 77.9297 43.4249 80.7858 43.1868 81.2788C42.9488 81.7718 42.8611 84.2488 42.8308 84.7056C42.8005 85.1624 41.584 88.971 41.584 88.971C41.584 88.971 41.11 90.7219 41.0212 91.2162C40.9325 91.7106 40.5754 93.1212 40.5754 93.1212L39.1449 96.6632C38.462 97.0437 36.7704 96.7396 36.7704 96.7396C36.7704 96.7396 36.4447 96.2037 35.9988 95.3303C35.5529 94.4568 35.3462 91.3717 35.3462 91.3717C35.3462 91.3717 36.9782 91.3328 36.5626 89.3153C36.1471 87.2978 36.9187 85.7358 36.8895 85.0499C36.8602 84.364 37.2455 82.1187 37.4533 81.7758C37.6611 81.4328 37.6308 79.986 37.5713 79.1863C37.5118 78.3865 37.5421 75.5692 37.5421 75.5692C37.5421 75.5692 37.6016 74.3126 37.8981 73.742C38.1947 73.1713 38.0767 71.5329 38.0767 71.5329C38.0767 71.5329 38.6395 71.1524 38.2542 67.459C37.8689 63.7657 38.8807 58.9684 38.8807 58.9684L38.9152 58.2986L38.9694 57.2135C38.9694 57.2135 47.4575 56.5276 48.1404 57.3648C48.3189 57.5972 48.4654 57.8667 48.5737 58.1619C48.8073 58.8063 48.9724 59.488 49.0644 60.1888L49.4205 71.7258L49.7766 80.2165L49.6575 86.6132C49.6575 86.6132 49.6836 88.2101 48.9705 90.1151Z" fill="#565988"/>
<path opacity="0.1" d="M46.454 67.3452L45.5633 92.0937L44.4941 94.3497C44.3594 94.2988 44.2852 94.2639 44.2852 94.2639C44.2852 94.2639 44.3447 91.6356 44.137 90.379C43.9292 89.1224 43.9584 83.8308 44.0774 83.1838C44.1965 82.5367 44.255 81.2788 44.255 81.2788C44.255 81.2788 44.1662 79.7945 44.3145 79.0711C44.3591 78.8757 44.3621 78.6685 44.3232 78.471C44.2842 78.2736 44.2048 78.0932 44.0931 77.9485L44.1077 77.8145L46.454 67.3452Z" fill="black"/>
<path opacity="0.1" d="M36.8622 93.9221C36.8622 93.9221 39.1771 92.7419 39.5332 93.1183C39.8892 93.4947 36.8037 94.0694 36.8037 94.0694L36.8622 93.9221Z" fill="black"/>
<path opacity="0.1" d="M48.2886 90.7996C48.1998 90.8384 45.9444 91.8713 46.1522 92.9698C46.36 94.0683 48.2886 90.7996 48.2886 90.7996Z" fill="black"/>
<path d="M41.2405 34.4676C41.2405 34.4676 41.9965 36.8093 41.5965 38.0096C41.1966 39.2099 45.9142 41.2649 45.9142 41.2649C45.9142 41.2649 44.5348 36.6954 45.8703 34.1247C47.2058 31.5539 41.2405 34.4676 41.2405 34.4676Z" fill="#FFD6D6"/>
<path d="M68.8628 102.26C67.9502 102.517 66.7484 103.688 66.7484 103.688C66.7484 103.688 64.4334 104.317 62.8526 104.031C61.2717 103.746 61.54 101.546 62.7638 101.004C63.6127 100.628 64.4825 99.7028 64.9367 99.1723C65.1372 98.9352 65.2562 98.7704 65.2562 98.7704L69.6866 97.6277C69.6866 97.6277 69.7587 97.9452 69.8589 98.3832C70.0364 99.1562 70.2985 100.303 70.3988 100.74C70.5543 101.432 69.7754 102.003 68.8628 102.26Z" fill="#505484"/>
<path d="M67.7277 97.862C67.7277 97.862 65.8576 98.1192 65.0787 97.5485C64.2997 96.9778 63.1866 97.8915 63.1866 97.8915C63.1866 97.8915 59.981 97.8057 58.9128 97.377C57.8447 96.9483 59.0684 94.8317 60.8049 95.0353C61.4376 95.109 61.8657 94.9308 62.155 94.6763C62.4571 94.4106 62.6677 94.0056 62.7428 93.5457L66.5019 93.831L67.0239 95.5404L67.7277 97.862Z" fill="#505484"/>
<path opacity="0.1" d="M67.0814 96.3201C67.0814 96.3201 62.7126 95.4037 62.155 94.6763C62.4572 94.4106 62.6677 94.0056 62.7429 93.5457L66.5019 93.831L67.024 95.5404L67.0814 96.3201Z" fill="black"/>
<path d="M60.6042 64.2519L60.6491 72.618C60.6491 72.618 60.8047 78.9009 60.8047 79.7583C60.8047 80.6157 60.8267 82.5273 60.8267 82.5273C60.8267 82.5273 61.1608 84.869 61.3613 85.6407C61.5617 86.4123 61.7173 89.9275 61.7173 89.9275C61.7173 89.9275 62.1851 90.8987 61.9846 91.2671C61.7842 91.6356 62.7636 92.438 62.7636 92.438C62.7636 92.438 62.1371 93.5526 62.0964 94.2947C62.0556 95.0369 67.0812 96.0912 67.0812 96.0912L65.1234 70.3339L63.5645 63.8809L60.6042 64.2519Z" fill="#575988"/>
<path opacity="0.1" d="M60.6042 64.2519L60.6491 72.618C60.6491 72.618 60.8047 78.9009 60.8047 79.7583C60.8047 80.6157 60.8267 82.5273 60.8267 82.5273C60.8267 82.5273 61.1608 84.869 61.3613 85.6407C61.5617 86.4123 61.7173 89.9275 61.7173 89.9275C61.7173 89.9275 62.1851 90.8987 61.9846 91.2671C61.7842 91.6356 62.7636 92.438 62.7636 92.438C62.7636 92.438 62.1371 93.5526 62.0964 94.2947C62.0556 95.0369 67.0812 96.0912 67.0812 96.0912L65.1234 70.3339L63.5645 63.8809L60.6042 64.2519Z" fill="black"/>
<path opacity="0.1" d="M69.859 98.3899C68.4045 102.839 64.9451 99.4054 64.9451 99.4054C64.9451 99.4054 64.9451 99.3197 64.9368 99.1723C65.1372 98.9352 65.2563 98.7704 65.2563 98.7704L69.6867 97.6277C69.6867 97.6277 69.7587 97.9519 69.859 98.3899Z" fill="black"/>
<path d="M69.9092 98.0053C68.4839 102.694 64.9452 99.1761 64.9452 99.1761C64.9452 99.1761 64.8335 96.7487 65.057 95.6355C65.2804 94.5222 64.8116 91.1798 64.8116 91.1798C64.8116 91.1798 64.5443 88.2098 64.2999 87.5253C64.0556 86.8407 64.0775 85.4689 64.0775 85.3551C64.0775 85.2412 64.1663 84.3262 63.9658 83.6979C63.7653 83.0696 63.6526 81.5277 63.6526 81.5277C63.6526 81.5277 63.6525 79.3575 63.4521 78.0728L62.7619 73.652L61.5151 64.5987L61.9046 64.5129L68.8828 62.9429C68.8828 62.9429 70.1963 71.5166 69.7505 72.3954C69.6544 72.5883 69.5698 73.0103 69.4999 73.5542C69.2451 75.4993 69.1501 78.9918 69.1501 78.9918C69.1501 78.9918 70.0178 80.7333 69.6847 81.9617C69.3516 83.1902 69.998 85.2171 69.998 85.2171C69.998 85.2171 70.1984 93.2134 69.8194 94.0131C69.4404 94.8129 69.9092 98.0053 69.9092 98.0053Z" fill="#575988"/>
<path d="M69.2408 39.5503C69.2408 39.5503 62.9194 45.2612 64.3437 42.4051C65.1112 40.8671 64.9702 38.9086 64.6695 37.4296C64.5174 36.6774 64.3076 35.9464 64.043 35.2473C64.043 35.2473 69.4142 32.3162 68.702 34.9432C68.5352 35.5553 68.4642 36.2036 68.4932 36.8509C68.5359 37.824 68.7954 38.7608 69.2408 39.5503Z" fill="#D28690"/>
<path d="M57.8593 52.6292C57.8593 52.6292 55.1884 51.6392 54.7436 52.6104C54.2987 53.5817 54.8772 55.7131 55.6833 56.056C56.4894 56.3989 58.3396 54.8945 58.3396 54.8945L57.8593 52.6292Z" fill="#D28690"/>
<path d="M60.9168 50.9453L59.8038 52.2595C59.8038 52.2595 57.8668 52.4872 57.3103 52.3158C57.3103 52.3158 57.823 56.7138 57.0879 57.2563L61.5841 56.0855L60.9168 50.9453Z" fill="#585B8A"/>
<path opacity="0.1" d="M60.9168 50.9453L59.8038 52.2595C59.8038 52.2595 57.8668 52.4872 57.3103 52.3158C57.3103 52.3158 57.823 56.7138 57.0879 57.2563L61.5841 56.0855L60.9168 50.9453Z" fill="black"/>
<path opacity="0.1" d="M46.6262 32.0683C46.6262 33.2053 46.2742 34.2957 45.6475 35.0996C45.0209 35.9035 44.171 36.3552 43.2849 36.3552C41.5703 35.2982 39.9435 34.4382 39.9435 32.0683C39.9257 31.4916 39.9989 30.9161 40.1587 30.3765C40.3185 29.8369 40.5616 29.3443 40.8733 28.9282C41.1851 28.512 41.5592 28.1809 41.9731 27.9548C42.3871 27.7286 42.8323 27.6121 43.2823 27.6121C43.7322 27.6121 44.1774 27.7286 44.5914 27.9548C45.0053 28.1809 45.3794 28.512 45.6912 28.9282C46.003 29.3443 46.246 29.8369 46.4058 30.3765C46.5656 30.9161 46.6388 31.4916 46.621 32.0683H46.6262Z" fill="black"/>
<path d="M46.6262 31.9531C46.6267 32.9613 46.3497 33.9373 45.8441 34.7091C45.3384 35.4808 44.6366 35.9987 43.8624 36.1714C43.0882 36.3441 42.2914 36.1605 41.6124 35.6531C40.9334 35.1456 40.4159 34.3468 40.1511 33.3976C39.8863 32.4484 39.8913 31.4097 40.1651 30.4647C40.439 29.5197 40.9641 28.7292 41.6479 28.2324C42.3317 27.7357 43.1302 27.5647 43.9027 27.7496C44.6752 27.9345 45.372 28.4634 45.8702 29.243C46.3581 30.0076 46.6252 30.965 46.6262 31.9531Z" fill="#FFD6D6"/>
<path opacity="0.1" d="M48.5737 58.1658C48.2431 58.4292 47.8972 58.6594 47.5389 58.8544C47.5389 58.8544 45.8474 58.5396 45.603 58.9107C45.3587 59.2817 43.2015 59.4251 43.2015 59.4251C43.2015 59.4251 39.9071 59.2255 39.4174 58.6829C39.266 58.5256 39.0975 58.3974 38.9172 58.3025L38.9715 57.2174C38.9715 57.2174 47.4596 56.5315 48.1424 57.3688C48.3202 57.6013 48.466 57.8708 48.5737 58.1658Z" fill="black"/>
<path d="M48.986 57.3981C48.9192 57.8831 47.5388 58.6252 47.5388 58.6252C47.5388 58.6252 45.8473 58.3117 45.6029 58.6828C45.3586 59.0539 43.2014 59.1972 43.2014 59.1972C43.2014 59.1972 39.907 58.9963 39.4173 58.4537C38.9276 57.9112 37.8364 57.65 37.8364 57.65C37.8364 57.65 37.2799 52.5674 37.5033 51.4541C37.7268 50.3409 37.1692 47.2838 37.0356 46.1987C36.9019 45.1136 37.4135 42.1155 38.0369 41.6305C38.6603 41.1456 39.551 39.5166 40.0845 39.0317C40.5346 38.6231 41.0316 38.0939 41.1767 37.9345L41.2195 37.8889C41.2195 37.8889 41.3093 37.0034 41.6654 36.5493C42.0215 36.0952 45.2928 39.4335 45.2928 39.4335C45.2928 39.4335 45.3158 39.6908 45.5382 39.2058C45.5883 39.0973 46.0196 39.8957 46.0948 40.2333C46.0948 40.2333 47.8751 44.2321 47.9868 45.056C48.0985 45.8799 48.5653 48.5685 48.654 49.225C48.677 49.3938 48.7146 49.9859 48.7584 50.7789C48.7668 50.9343 48.7741 51.0991 48.7835 51.2706C48.8493 52.5861 48.9203 54.266 48.9631 55.536C48.9631 55.6807 48.9725 55.82 48.9756 55.954C48.9982 56.4348 49.0016 56.9168 48.986 57.3981Z" fill="#DCE6F2"/>
<path opacity="0.1" d="M37.6829 47.0884C37.6829 47.0884 38.9066 49.0014 39.3076 49.0014C39.7085 49.0014 37.6829 47.0884 37.6829 47.0884Z" fill="black"/>
<path opacity="0.1" d="M40.261 51.2012C40.261 51.2012 38.2572 53.9997 38.5245 54.5141C38.7919 55.0285 40.261 51.2012 40.261 51.2012Z" fill="black"/>
<path opacity="0.1" d="M38.7917 56.7699C38.7917 56.7699 41.0889 53.5427 41.1934 52.4294L38.7917 56.7699Z" fill="black"/>
<path opacity="0.1" d="M41.6853 56.9977C41.6853 56.9977 44.3344 55.1986 44.5568 53.7705C44.7792 52.3425 41.6853 56.9977 41.6853 56.9977Z" fill="black"/>
<path opacity="0.1" d="M45.0463 39.6358L44.6787 40.7772L45.2906 41.1483L45.892 43.3051C45.892 43.3051 47.5502 47.5598 47.4833 49.7729C47.4165 51.986 47.7841 55.3123 47.7841 55.3123L48.7405 55.0846L48.2894 48.5753C48.2192 47.5674 48.0224 46.5808 47.7068 45.6535C46.9425 43.4083 45.5203 39.2634 45.4305 39.2634C45.3083 39.2634 45.394 39.321 45.394 39.321L45.0463 39.6358Z" fill="black"/>
<path d="M45.1351 39.5207L44.7676 40.6635L45.3805 41.0345L45.9809 43.1914C45.9809 43.1914 47.639 47.4461 47.5722 49.6591C47.5054 51.8722 47.8729 55.1986 47.8729 55.1986L48.8304 54.9708L48.3783 48.4615C48.3089 47.4536 48.1125 46.4669 47.7967 45.5397C47.0324 43.2932 45.6102 39.1497 45.5215 39.1497C45.3983 39.1497 45.4839 39.2073 45.4839 39.2073L45.1351 39.5207Z" fill="#575989"/>
<path d="M55.9747 56.3039C55.509 56.2583 54.3917 55.5336 53.948 55.2322L53.76 55.0982L53.783 52.8865C53.8927 52.8037 54.0064 52.7299 54.1234 52.6654C54.7165 52.3332 55.9329 51.8817 56.5427 53.3353C57.3655 55.2844 56.5647 56.3548 55.9747 56.3039Z" fill="#FFD6D6"/>
<path opacity="0.1" d="M45.8703 29.243C45.8225 29.2815 45.7699 29.3091 45.7147 29.3248C45.3274 29.4333 44.8867 29.0059 44.5547 29.2805C44.3521 29.4493 44.3051 29.799 44.278 30.1071C44.2306 30.643 44.1833 31.1752 44.136 31.704C44.126 31.8922 44.0951 32.0776 44.0441 32.2545C43.8801 32.7355 43.4301 32.9619 43.0198 32.9538C42.859 32.9685 42.7003 32.9011 42.5781 32.7663C42.506 32.6725 42.4674 32.5412 42.388 32.4555C41.866 31.8942 41.7072 33.27 41.8451 33.6612C42.0664 34.3002 42.8527 34.9164 42.5227 35.7282C42.4672 35.8602 42.3831 35.9686 42.2805 36.0404C41.7833 35.8406 41.3293 35.4944 40.955 35.0294C40.5806 34.5644 40.2962 33.9936 40.1245 33.3624C39.9527 32.7313 39.8984 32.0574 39.9659 31.3945C40.0333 30.7317 40.2206 30.0982 40.5129 29.5448C40.8052 28.9914 41.1943 28.5333 41.6491 28.2072C42.104 27.8811 42.612 27.696 43.1325 27.6667C43.6531 27.6374 44.1717 27.7647 44.6471 28.0384C45.1225 28.3121 45.5414 28.7246 45.8703 29.243Z" fill="black"/>
<path d="M42.2993 32.4502C42.3776 32.5346 42.4173 32.6659 42.4893 32.7597C42.6115 32.8944 42.7703 32.9618 42.931 32.9473C43.3413 32.9553 43.7914 32.7302 43.9543 32.2466C44.0062 32.0704 44.0375 31.8853 44.0472 31.6974L44.1892 30.1005C44.2164 29.7924 44.2623 29.4428 44.4659 29.274C44.7979 29.006 45.2386 29.4267 45.626 29.3182C45.7656 29.2726 45.8865 29.1606 45.9641 29.0048C46.0417 28.8491 46.0701 28.6613 46.0436 28.4796C45.9987 28.2237 45.8463 28.0214 45.768 27.7776C45.7205 27.5902 45.6825 27.3992 45.6542 27.2056C45.438 26.166 44.4868 25.5819 43.6598 25.7561C43.2004 25.8539 42.7733 26.1352 42.3128 26.2209C41.9829 26.2825 41.6456 26.2424 41.3125 26.2879C41.0031 26.3289 40.7022 26.4429 40.425 26.6241C40.3522 26.6655 40.2879 26.7278 40.237 26.8063C40.1897 26.9124 40.1579 27.0286 40.1431 27.1493C40.0313 27.6851 39.6721 28.0803 39.4121 28.5318C39.1148 29.0512 38.9427 29.6712 38.9172 30.3149C38.907 30.4793 38.919 30.6447 38.9527 30.8038C38.9746 30.8976 39.0091 30.9887 39.0258 31.0852C39.077 31.3785 38.96 31.6719 38.9026 31.964C38.8312 32.3366 38.8569 32.729 38.9757 33.0812C39.3766 34.2641 40.6975 34.6593 40.9721 35.9012C41.216 36.0512 41.4794 36.142 41.749 36.1691C42.0184 36.1758 42.3087 36.0271 42.434 35.7203C42.7629 34.9165 41.9777 34.2923 41.7563 33.6546C41.6174 33.2621 41.773 31.8876 42.2993 32.4502Z" fill="#353045"/>
<path opacity="0.1" d="M68.7072 34.9432C68.5403 35.5553 68.4694 36.2036 68.4984 36.8509C68.3376 37.0264 68.1621 36.5013 67.9763 36.6366C67.4667 37.0143 66.8778 37.9132 66.2472 37.9132C65.7002 37.9137 65.161 37.748 64.6736 37.4296C64.5216 36.6774 64.3117 35.9464 64.0471 35.2473C64.0471 35.2473 69.4193 32.3162 68.7072 34.9432Z" fill="black"/>
<path d="M69.7161 33.2298C69.7161 34.1111 69.5124 34.9725 69.1308 35.7053C68.7492 36.438 68.2068 37.0091 67.5722 37.3463C66.9376 37.6836 66.2393 37.7718 65.5656 37.5999C64.892 37.428 64.2731 37.0036 63.7875 36.3805C63.3018 35.7573 62.971 34.9634 62.837 34.0991C62.703 33.2348 62.7718 32.3389 63.0346 31.5247C63.2975 30.7106 63.7426 30.0147 64.3137 29.5251C64.8848 29.0355 65.5563 28.7742 66.2432 28.7742C66.6993 28.774 67.1509 28.8891 67.5724 29.113C67.9938 29.3368 68.3767 29.665 68.6992 30.0788C69.0217 30.4926 69.2775 30.9839 69.452 31.5245C69.6265 32.0652 69.7162 32.6447 69.7161 33.2298Z" fill="#D28690"/>
<path d="M69.5675 40.54C69.5675 40.54 68.9139 41.4537 68.8251 41.5287C68.7364 41.6037 66.8412 51.8439 66.8078 51.9631C66.7744 52.0824 64.5514 61.3286 64.5514 61.3286L60.9897 63.5751L61.2873 52.2659L63.8977 42.9393C63.8977 42.9393 64.7592 41.6827 65.0254 41.2259C65.2917 40.7691 68.6163 38.0269 68.6163 38.0269L69.1843 39.5286L69.5675 40.54Z" fill="#F0F3F7"/>
<path opacity="0.1" d="M69.0965 39.7578L65.0013 43.5196L64.9355 41.4538C65.2029 40.997 68.5264 38.2561 68.5264 38.2561L69.0965 39.7578Z" fill="black"/>
<path d="M69.1855 39.5286L65.0903 43.2903L65.0266 41.2259C65.2939 40.7678 68.6175 38.0269 68.6175 38.0269L69.1855 39.5286Z" fill="#F0F3F7"/>
<path d="M64.8896 40.3071L65.0264 41.2261L64.1106 42.4197L64.8416 40.3205C64.8416 40.3205 63.2753 41.7205 62.8054 42.0915C62.3356 42.4626 61.8657 43.7192 61.8479 44.0621C61.8302 44.4051 61.0909 49.5734 61.0909 49.5734C61.0909 49.5734 60.5344 51.4864 60.691 52.029C60.8476 52.5715 59.8452 69.6774 59.8452 69.6774C59.9792 69.3452 60.1686 69.055 60.4 68.8274C60.6314 68.5998 60.899 68.4404 61.1838 68.3606L60.8267 58.2516C60.8267 58.2516 61.2611 51.5266 61.283 51.4409C61.305 51.3552 62.2959 47.4568 62.2959 47.4568L64.8896 40.3071Z" fill="#585B8A"/>
<path opacity="0.1" d="M65.1163 41.3398L65.0453 43.2153C65.0453 43.2153 64.0544 47.2276 63.7213 47.884C63.3882 48.5404 62.3743 52.4535 62.3743 52.4535L61.8031 59.2508L60.8237 59.8228L60.3413 58.6828L61.1432 52.1186C61.1432 52.1186 62.6562 46.5792 62.8797 46.0072L63.9959 42.9903L65.1163 41.3398Z" fill="black"/>
<path d="M65.0264 41.2261L64.9564 43.1016C64.9564 43.1016 63.9655 47.1138 63.6314 47.7702C63.2973 48.4266 62.2855 52.3397 62.2855 52.3397L61.7174 59.1357L60.738 59.7064L60.2483 58.565L61.0502 52.0008C61.0502 52.0008 62.5632 46.4601 62.7856 45.8894L63.9102 42.8765L65.0264 41.2261Z" fill="#663D5C"/>
<path d="M53.4822 55.5416L55.3962 57.2416C55.3962 57.2416 56.7463 56.2704 55.96 55.6421C55.1737 55.0138 54.4762 54.9187 54.2235 54.9187C53.9708 54.9187 53.4822 55.5416 53.4822 55.5416Z" fill="#D28690"/>
<path d="M54.9116 52.3988C54.8689 52.4329 54.8337 52.4805 54.8094 52.537C54.785 52.5935 54.7724 52.6571 54.7727 52.7216C54.7727 53.2427 54.8187 54.6226 55.159 53.9996C55.5767 53.2374 55.5005 52.5528 56.1385 53.0472C56.535 53.364 56.882 53.7729 57.1617 54.2528L56.9842 52.6158C56.9842 52.6158 55.6728 51.7852 54.9116 52.3988Z" fill="#D28690"/>
<path opacity="0.1" d="M69.7524 72.39C69.6563 72.5829 69.5717 73.0049 69.5018 73.5488C65.5987 75.0506 62.7429 71.8756 62.7429 71.8756C62.3973 70.3734 62.115 68.8485 61.8971 67.3074C61.8271 66.7796 61.8428 65.7561 61.9075 64.5076L68.8857 62.9375C68.8857 62.9375 70.1982 71.5045 69.7524 72.39Z" fill="black"/>
<path d="M73.7589 46.8311C73.5814 47.5746 73.6482 49.0871 73.6482 49.0871L72.0454 58.7968C72.0454 58.7968 71.2664 66.2787 71.1328 67.278C70.9991 68.2774 70.7767 72.6754 70.7767 72.6754C66.2356 75.5316 62.7366 71.6479 62.7366 71.6479C62.3912 70.1453 62.1089 68.6199 61.8909 67.0784C61.6674 65.3824 62.3252 58.5878 62.6364 55.5696C62.7293 54.676 62.792 54.1134 62.792 54.1134L63.9604 48.5445C63.9604 48.5445 65.3961 43.8464 65.9307 42.4759C66.4654 41.1055 68.6122 38.027 68.6122 38.027C68.8784 37.81 69.3045 38.5762 69.6208 39.2742C69.86 39.802 70.0385 40.2923 70.0385 40.2923C70.0385 40.2923 72.7095 41.7766 73.1094 42.5697C73.5093 43.3628 73.4435 44.9971 73.4884 45.0829C73.5333 45.1686 73.9374 46.0889 73.7589 46.8311Z" fill="#585B8A"/>
<path opacity="0.1" d="M67.4604 43.3763C67.4604 43.3763 67.6608 44.8901 67.1471 45.3469C66.6511 45.789 62.959 55.1035 62.7292 55.6849C62.8222 54.7901 62.8848 54.2274 62.8848 54.2274L64.0532 48.6599C64.0532 48.6599 65.49 43.9617 66.0236 42.5899C66.5572 41.2182 68.7061 38.141 68.7061 38.141C68.9723 37.924 69.3973 38.6902 69.7137 39.3882C69.2365 40.6595 68.2414 43.0628 67.4604 43.3763Z" fill="black"/>
<path d="M67.3716 43.2623C67.3716 43.2623 67.5711 44.7761 67.0584 45.2329C66.5457 45.6897 62.8713 54.9882 62.6384 55.5696C62.7314 54.676 62.794 54.1134 62.794 54.1134L63.9624 48.5445C63.9624 48.5445 65.3982 43.8464 65.9328 42.4759C66.4674 41.1055 68.6142 38.027 68.6142 38.027C68.8804 37.81 69.3065 38.5762 69.6229 39.2742C69.1478 40.5442 68.1516 42.9488 67.3716 43.2623Z" fill="#585B8A"/>
<path d="M72.6687 56.9414L71.4126 65.3262V65.3276L71.2925 66.13V66.1314L71.0221 67.9359L69.8683 67.6224L69.3305 67.4764L61.8887 65.4535L61.3416 65.3048L60.0928 64.9659L60.3371 62.8841L60.4384 62.0187L61.3395 54.3425L72.6687 56.9414Z" fill="#03A5EC"/>
<path d="M65.7241 63.7952C65.7241 63.7952 62.7639 65.1656 63.4092 66.7933C64.0544 68.4209 68.1946 65.5367 68.1946 65.5367L65.7241 63.7952Z" fill="#D28690"/>
<path opacity="0.1" d="M67.8384 75.4741C67.8384 75.588 67.9501 77.0455 68.3949 77.5586C68.8398 78.0717 67.8384 75.4741 67.8384 75.4741Z" fill="black"/>
<path opacity="0.1" d="M64.8564 80.6423C64.8564 80.6423 65.39 82.5272 67.5044 83.2988C69.6189 84.0705 64.8564 80.6423 64.8564 80.6423Z" fill="black"/>
<path opacity="0.1" d="M69.7158 33.2299C69.7159 34.0132 69.5551 34.7827 69.2495 35.4607C68.9439 36.1388 68.5043 36.7015 67.9752 37.0921C67.7757 36.9489 67.5987 36.7595 67.4531 36.5335C67.3017 36.2977 67.1837 35.9762 67.2745 35.6948C67.3476 35.4684 67.5408 35.3251 67.5878 35.0907C67.6099 34.9473 67.6042 34.7991 67.5711 34.6593C67.5324 34.4383 67.4959 34.2172 67.4583 33.9975C67.4259 33.81 67.3685 33.5889 67.2234 33.5434C67.0782 33.4978 66.9571 33.6532 66.8433 33.7684C66.5645 34.0511 66.0299 34.2427 65.6947 34.0109C65.3595 33.7792 65.4535 33.0035 65.3992 32.5842C65.3985 32.5478 65.3916 32.512 65.379 32.4793C65.3664 32.4467 65.3483 32.418 65.3261 32.3953C65.2773 32.3745 65.2252 32.3699 65.1747 32.3819C64.9941 32.3819 64.8489 32.1743 64.7967 31.9519C64.7597 31.7249 64.7394 31.4939 64.7362 31.262C64.7163 31.0302 64.6505 30.7851 64.496 30.6658C64.3725 30.5921 64.2356 30.5634 64.1003 30.5828L63.4456 30.5921C63.8799 29.8388 64.4883 29.2803 65.1842 28.9961C65.8801 28.7118 66.6282 28.7163 67.322 29.0089C68.0159 29.3015 68.6201 29.8672 69.049 30.6257C69.4778 31.3843 69.7093 32.2969 69.7106 33.2339L69.7158 33.2299Z" fill="black"/>
<path d="M66.9363 33.7683C67.0501 33.6531 67.1754 33.5004 67.3164 33.5446C67.4573 33.5888 67.5179 33.8126 67.5503 33.9974L67.663 34.6579C67.6964 34.7981 67.7025 34.9466 67.6808 35.0906C67.6275 35.3264 67.4354 35.4684 67.3613 35.6948C67.2704 35.9761 67.3895 36.2976 67.5398 36.532C67.8141 36.9561 68.1933 37.2469 68.6143 37.3559C68.7242 37.3898 68.8385 37.393 68.9495 37.3653C69.198 37.2916 69.3671 36.9982 69.5008 36.7236C70.191 35.3438 70.7851 33.8313 70.9062 32.1996C70.9395 31.8668 70.9274 31.5291 70.8707 31.2016C70.8141 30.947 70.7342 30.7019 70.6327 30.4715C70.4549 30.0007 70.2291 29.5624 69.9613 29.168C69.4862 28.5116 68.8304 28.1084 68.1569 27.8699C67.3994 27.6002 66.6084 27.5206 65.8274 27.6355C65.6185 27.6663 65.4181 27.7105 65.2124 27.7279C64.9541 27.7433 64.6953 27.7379 64.4376 27.7118L62.9006 27.5939C62.8129 27.823 62.9006 28.095 63.005 28.3093C63.1094 28.5236 63.2389 28.746 63.2305 29.0006C63.2222 29.2551 63.0812 29.456 62.9726 29.6704C62.864 29.8847 62.7815 30.162 62.8901 30.371C62.9987 30.58 63.2201 30.5934 63.4122 30.5907L64.187 30.58C64.3219 30.5622 64.4581 30.5923 64.5806 30.6671C64.7352 30.7863 64.801 31.0328 64.8208 31.2632C64.8251 31.495 64.8454 31.7259 64.8814 31.9531C64.9346 32.1755 65.0787 32.3858 65.2593 32.3832C65.3099 32.3702 65.3623 32.3753 65.4108 32.3979C65.4329 32.4203 65.451 32.4488 65.4636 32.4812C65.4763 32.5136 65.4832 32.5492 65.4838 32.5854C65.5381 33.0048 65.4379 33.7791 65.7793 34.0122C66.1208 34.2453 66.6575 34.051 66.9363 33.7683Z" fill="#663D5C"/>
<path opacity="0.1" d="M71.3499 42.5684C70.966 42.5161 70.5796 42.6327 70.2542 42.8993C69.9288 43.1659 69.6837 43.5664 69.5592 44.0353C69.1415 45.5611 68.4451 48.3141 68.6194 49.4019C68.8648 50.9438 69.154 53.5146 69.154 53.5146C69.154 53.5146 70.4227 54.4523 69.7805 55.3981C69.1384 56.3439 68.9567 57.6835 68.9567 57.6835C68.9567 57.6835 68.1328 58.1404 67.9553 59.1116C67.7778 60.0828 66.5749 61.4238 66.5749 61.4238L64.7727 63.7374C64.7727 63.7374 67.7549 67.6223 68.3563 67.8206L70.2034 65.0502L72.3847 61.3381L74.2767 58.7928C74.2767 58.7928 74.7216 57.4531 74.4991 54.9078C74.2767 52.3625 73.408 49.9391 73.408 49.9391L73.4748 49.0817C73.4748 49.0817 73.6795 42.9395 71.3499 42.5684Z" fill="black"/>
<path d="M71.5275 42.5683C71.144 42.5167 70.7581 42.6337 70.4331 42.9002C70.1082 43.1667 69.8634 43.5669 69.7389 44.0352C69.3212 45.5611 68.6248 48.3141 68.7992 49.4019C69.0435 50.9438 69.3327 53.5145 69.3327 53.5145C69.3327 53.5145 70.6014 54.4523 69.9592 55.3981C69.3171 56.3439 69.1364 57.6835 69.1364 57.6835C69.1364 57.6835 68.3126 58.1403 68.134 59.1116C67.9555 60.0828 66.7547 61.4238 66.7547 61.4238L64.9514 63.7374C64.9514 63.7374 67.9335 67.6223 68.535 67.8206L70.3821 65.0502L72.5581 61.3381L74.4502 58.7927C74.4502 58.7927 74.896 57.4531 74.6726 54.9078C74.4491 52.3625 73.5825 49.939 73.5825 49.939L73.6493 49.0817C73.6493 49.0817 73.8571 42.9394 71.5275 42.5683Z" fill="#585B8A"/>
<path opacity="0.1" d="M69.6638 51.2588C69.6638 51.2588 71.5559 54.2274 72.3578 53.571C73.1597 52.9146 69.6638 51.2588 69.6638 51.2588Z" fill="black"/>
<path opacity="0.1" d="M70.3757 48.9731C70.5762 49.0589 72.2239 52.0007 73.0697 51.6524C73.9155 51.3041 70.3757 48.9731 70.3757 48.9731Z" fill="black"/>
<path opacity="0.1" d="M70.8435 54.0264C70.8435 54.0264 70.9552 55.7116 72.3127 55.4826C73.6701 55.2535 70.8435 54.0264 70.8435 54.0264Z" fill="black"/>
<path opacity="0.1" d="M64.8449 40.4343L64.1108 42.5335L65.0276 41.3399L64.8449 40.4343Z" fill="black"/>
<path d="M64.8449 40.3206L64.1108 42.4198L65.0276 41.2262L64.8449 40.3206Z" fill="#F0F3F7"/>
<path opacity="0.3" d="M61.8888 65.4537L61.3416 65.305L60.3372 62.8842L60.4384 62.0188L61.8888 65.4537Z" fill="black"/>
<path opacity="0.3" d="M71.4126 65.3276L71.2926 66.1301V66.1314L69.8683 67.6224L69.3306 67.4764L71.4126 65.3276Z" fill="black"/>
<path opacity="0.1" d="M48.9724 55.9596C48.6968 56.0185 48.4295 56.0721 48.1851 56.1123C46.8277 56.3414 43.5992 54.285 43.5992 54.285C43.5992 54.285 39.6595 50.0584 38.5245 46.061C37.3895 42.0635 39.8819 41.4633 39.8819 41.4633C40.8217 40.7774 42.8651 42.6904 43.1543 43.0052C43.4436 43.3201 43.6889 44.1185 43.666 44.6329C43.643 45.1473 44.3342 45.8037 44.3342 45.8037C44.3342 45.8037 45.5142 48.4308 45.8034 48.7161C46.0926 49.0015 46.1594 49.2587 46.2482 49.745C46.337 50.2313 47.1159 50.6305 47.45 50.601C47.7842 50.5715 48.181 50.7443 48.181 50.9721C48.181 51.1556 48.5078 51.2467 48.7761 51.2762C48.8555 52.7404 48.9338 54.6588 48.9724 55.9596Z" fill="black"/>
<path opacity="0.1" d="M48.9598 55.5416C48.751 55.5845 48.5505 55.6233 48.3626 55.6555C47.0051 55.8846 43.7776 53.8282 43.7776 53.8282C43.7776 53.8282 39.838 49.6016 38.703 45.6042C37.568 41.6067 40.0604 41.0065 40.0604 41.0065C41.0001 40.3206 43.0425 42.2336 43.3318 42.5484C43.621 42.8633 43.8664 43.6617 43.8444 44.1761C43.8225 44.6905 44.5117 45.347 44.5117 45.347C44.5117 45.347 45.6916 47.974 45.9808 48.2593C46.27 48.5447 46.3369 48.8019 46.4267 49.2882C46.5165 49.7745 47.2944 50.1723 47.6285 50.1442C47.9626 50.1161 48.3594 50.2875 48.3594 50.5153C48.3594 50.6492 48.5453 50.739 48.752 50.7832C48.7604 50.9386 48.7677 51.1034 48.7771 51.2749C48.846 52.5917 48.917 54.2716 48.9598 55.5416Z" fill="black"/>
<path opacity="0.1" d="M54.1234 52.6655L54.0388 55.2323H53.948L53.76 55.0983L53.783 52.8866C53.8927 52.8038 54.0064 52.73 54.1234 52.6655Z" fill="black"/>
<path d="M39.8819 41.2341C39.8819 41.2341 37.3895 41.8343 38.5245 45.8318C39.6595 49.8293 43.5992 54.0572 43.5992 54.0572C43.5992 54.0572 46.8267 56.1122 48.1851 55.8844C49.5436 55.6567 51.6121 55.0565 51.8794 55.1423C52.1467 55.228 53.95 55.228 53.95 55.228L54.0387 52.5487L51.9504 52.4054L50.8822 52.12C50.8822 52.12 50.5032 51.7181 50.2808 51.7771C50.0584 51.836 49.5916 51.4341 49.5916 51.4341C49.5916 51.4341 49.2345 51.0631 48.9651 51.0631C48.6957 51.0631 48.1862 50.9773 48.1862 50.7496C48.1862 50.5218 47.7852 50.3477 47.4553 50.3785C47.1253 50.4093 46.337 50.0074 46.2451 49.5158C46.1532 49.0241 46.0895 48.7736 45.8003 48.4883C45.511 48.2029 44.3311 45.5746 44.3311 45.5746C44.3311 45.5746 43.6409 44.9181 43.6628 44.405C43.6848 43.892 43.4404 43.0909 43.1512 42.776C42.862 42.4612 40.8154 40.5496 39.8819 41.2341Z" fill="#DCE6F2"/>
<path opacity="0.1" d="M46.2931 50.4294C46.2931 50.4294 45.3356 51.6579 45.5799 51.8856L46.2931 50.4294Z" fill="black"/>
<path opacity="0.1" d="M47.3164 51.4006C47.3164 51.4006 46.0697 52.6291 46.4038 52.7148C46.7379 52.8006 47.3164 51.4006 47.3164 51.4006Z" fill="black"/>
<path opacity="0.1" d="M45.2009 53.2227C45.3795 53.3379 48.0275 55.3661 49.0299 55.3366L45.2009 53.2227Z" fill="black"/>
<path opacity="0.1" d="M45.3805 39.6641C45.3805 39.6641 44.9127 41.6347 44.7342 41.6347C44.5943 41.6347 42.2449 39.1938 41.2644 38.1677L41.3072 38.1221C41.3072 38.1221 41.396 37.2366 41.752 36.7825C42.1081 36.3283 45.3805 39.6641 45.3805 39.6641Z" fill="black"/>
<path d="M45.2906 39.435C45.2906 39.435 44.8239 41.4057 44.6453 41.4057C44.5044 41.4057 42.155 38.9648 41.1746 37.9387L41.2174 37.8931C41.2174 37.8931 41.3072 37.0076 41.6632 36.5535C42.0193 36.0993 45.2906 39.435 45.2906 39.435Z" fill="#DCE6F2"/>
<g opacity="0.15">
<path opacity="0.15" d="M38.9873 33.0664C39.3006 33.9841 40.163 34.4288 40.6632 35.1603C40.3656 34.2614 39.4958 33.8206 38.9873 33.0664Z" fill="black"/>
<path opacity="0.15" d="M42.1794 35.1803C42.0551 35.4871 41.7617 35.6358 41.4944 35.6291C41.2568 35.6072 41.0241 35.531 40.8074 35.404C40.886 35.5527 40.9459 35.7164 40.9849 35.889C41.2287 36.0393 41.4921 36.1301 41.7617 36.1569C42.0322 36.165 42.3224 36.0163 42.4467 35.7081C42.6461 35.2192 42.4383 34.8012 42.1951 34.406C42.2404 34.5274 42.2626 34.661 42.2599 34.7956C42.2572 34.9302 42.2296 35.0621 42.1794 35.1803Z" fill="black"/>
<path opacity="0.15" d="M46.0541 28.4661C46.0092 28.2089 45.8567 28.0066 45.7784 27.7642C45.7305 27.5765 45.6924 27.385 45.6646 27.1908C45.6053 26.9162 45.4953 26.6639 45.344 26.4553C45.3651 26.5213 45.3829 26.5888 45.3973 26.6576C45.4266 26.8527 45.4656 27.0451 45.5142 27.2337C45.5926 27.4761 45.745 27.6784 45.7899 27.9356C45.8164 28.1173 45.7879 28.3051 45.7103 28.4609C45.6328 28.6167 45.5119 28.7287 45.3722 28.7742C44.9859 28.8827 44.5453 28.4541 44.2132 28.73C44.0096 28.8975 43.9626 29.2471 43.9355 29.5552C43.8888 30.0911 43.8415 30.6238 43.7935 31.1534C43.784 31.3413 43.7531 31.5264 43.7016 31.7027C43.5376 32.185 43.0876 32.4114 42.6772 32.4033C42.5169 32.4171 42.3588 32.3497 42.2366 32.2158C42.1772 32.1079 42.1135 32.0042 42.0455 31.905C41.5234 31.3423 41.3647 32.7181 41.5026 33.1106C41.5716 33.2872 41.6571 33.4523 41.7573 33.6023C41.6425 33.1602 41.8033 31.8876 42.3128 32.4328C42.3807 32.5317 42.4442 32.6354 42.5029 32.7436C42.6255 32.8774 42.7839 32.9447 42.9446 32.9311C43.3549 32.9392 43.8049 32.7128 43.9689 32.2305C44.0205 32.0538 44.0514 31.8682 44.0608 31.6799C44.1081 31.1441 44.1554 30.6118 44.2028 30.0831C44.2299 29.7749 44.2769 29.4253 44.4795 29.2578C44.8126 28.9819 45.2532 29.4106 45.6395 29.3007C45.7781 29.2546 45.8979 29.1429 45.9748 28.9881C46.0517 28.8332 46.0801 28.6467 46.0541 28.4661Z" fill="black"/>
</g>
<path opacity="0.1" d="M69.172 37.0237C69.0609 37.0502 68.9467 37.0466 68.8368 37.013C68.4163 36.904 68.0375 36.6137 67.7634 36.1904C67.612 35.9546 67.4929 35.6331 67.5848 35.3518C67.6579 35.1254 67.85 34.9834 67.8981 34.7476C67.9198 34.6037 67.9137 34.4551 67.8803 34.3149L67.7676 33.6545C67.7352 33.4669 67.6788 33.2459 67.5337 33.2017C67.3885 33.1575 67.2674 33.3102 67.1536 33.4254C66.8748 33.7081 66.3391 33.901 66.005 33.6679C65.6709 33.4348 65.7638 32.6605 65.7095 32.2411C65.7086 32.205 65.7016 32.1695 65.689 32.1371C65.6764 32.1047 65.6584 32.0762 65.6364 32.0536C65.5875 32.0317 65.5349 32.0267 65.484 32.0389C65.3033 32.0389 65.1592 31.8312 65.106 31.6088C65.0698 31.3817 65.0499 31.1507 65.0464 30.9189C65.0256 30.6885 64.9608 30.442 64.8052 30.3228C64.6826 30.2487 64.5465 30.2186 64.4116 30.2357L63.6368 30.2464C63.4457 30.2464 63.2191 30.2303 63.1147 30.0267C63.0103 29.8231 63.0876 29.5337 63.1972 29.3261C63.3068 29.1184 63.4457 28.9121 63.4551 28.6563C63.4645 28.4004 63.335 28.1794 63.2296 27.965C63.1691 27.8478 63.1246 27.7182 63.098 27.5819L62.8756 27.5645C62.7889 27.7922 62.8756 28.0641 62.98 28.2798C63.0844 28.4955 63.215 28.7165 63.2056 28.9697C63.1962 29.2229 63.0573 29.4266 62.9477 29.6396C62.838 29.8526 62.7576 30.1312 62.8662 30.3402C62.9748 30.5492 63.1951 30.5639 63.3883 30.5612L64.1631 30.5492C64.2981 30.5324 64.4342 30.563 64.5567 30.6376C64.7123 30.7568 64.7781 31.0033 64.7979 31.2337C64.8012 31.4656 64.8215 31.6966 64.8585 31.9237C64.9107 32.1447 65.0558 32.3564 65.2365 32.3523C65.2871 32.3408 65.3392 32.3459 65.3879 32.3671C65.41 32.3899 65.428 32.4186 65.4406 32.4512C65.4532 32.4838 65.4602 32.5196 65.461 32.556C65.5153 32.9739 65.415 33.7496 65.7565 33.9827C66.0979 34.2158 66.6305 34.0229 66.9051 33.7402C67.0189 33.625 67.1452 33.4723 67.2862 33.5152C67.4272 33.558 67.4877 33.7831 67.519 33.9679L67.6329 34.6297C67.6659 34.77 67.6717 34.9186 67.6496 35.0624C67.5974 35.2969 67.4042 35.4402 67.3311 35.6653C67.2403 35.9466 67.3582 36.2695 67.5097 36.5039C67.7857 36.929 68.1672 37.2194 68.5904 37.3264C68.7003 37.3601 68.8145 37.3637 68.9256 37.3372C69.105 37.267 69.2591 37.1168 69.3599 36.9138C69.3029 36.9646 69.2392 37.0018 69.172 37.0237Z" fill="black"/>
<path opacity="0.1" d="M21.2686 96.1876C22.6625 96.1876 23.7924 95.9651 23.7924 95.6906C23.7924 95.4161 22.6625 95.1936 21.2686 95.1936C19.8748 95.1936 18.7449 95.4161 18.7449 95.6906C18.7449 95.9651 19.8748 96.1876 21.2686 96.1876Z" fill="#03A5EC"/>
<path opacity="0.1" d="M109.388 83.2655C110.782 83.2655 111.912 83.043 111.912 82.7685C111.912 82.494 110.782 82.2715 109.388 82.2715C107.994 82.2715 106.864 82.494 106.864 82.7685C106.864 83.043 107.994 83.2655 109.388 83.2655Z" fill="#03A5EC"/>
<path opacity="0.1" d="M83.6588 104.235C87.6955 104.235 90.9679 103.591 90.9679 102.796C90.9679 102.001 87.6955 101.357 83.6588 101.357C79.622 101.357 76.3496 102.001 76.3496 102.796C76.3496 103.591 79.622 104.235 83.6588 104.235Z" fill="#03A5EC"/>
<path opacity="0.1" d="M104.437 97.8234C107.585 97.8234 110.138 97.3208 110.138 96.7007C110.138 96.0807 107.585 95.5781 104.437 95.5781C101.288 95.5781 98.7354 96.0807 98.7354 96.7007C98.7354 97.3208 101.288 97.8234 104.437 97.8234Z" fill="#03A5EC"/>
<path opacity="0.1" d="M103.498 109.79C108.837 109.79 113.166 108.938 113.166 107.887C113.166 106.835 108.837 105.983 103.498 105.983C98.1583 105.983 93.8298 106.835 93.8298 107.887C93.8298 108.938 98.1583 109.79 103.498 109.79Z" fill="#03A5EC"/>
<path opacity="0.1" d="M10.4666 111C14.5034 111 17.7758 110.356 17.7758 109.561C17.7758 108.766 14.5034 108.122 10.4666 108.122C6.4299 108.122 3.15747 108.766 3.15747 109.561C3.15747 110.356 6.4299 111 10.4666 111Z" fill="#03A5EC"/>
<path d="M21.3833 79.8613C21.3833 79.8613 21.6694 80.3409 21.2518 81.067C20.8341 81.7931 20.4895 82.4066 20.6253 82.8541C20.6253 82.8541 21.2518 81.5144 21.7738 81.4903C22.2959 81.4662 21.9482 80.6705 21.3833 79.8613Z" fill="#03A5EC"/>
<path opacity="0.1" d="M21.3836 79.8613C21.4091 79.9071 21.4288 79.9577 21.442 80.0114C21.9432 80.7669 22.2095 81.4702 21.7281 81.485C21.2802 81.501 20.7424 82.5299 20.614 82.7898C20.6179 82.8098 20.6228 82.8295 20.6286 82.8487C20.6286 82.8487 21.2551 81.5091 21.7772 81.485C22.2993 81.4609 21.9485 80.6705 21.3836 79.8613Z" fill="black"/>
<path d="M21.9159 80.4723C21.9159 80.6411 21.9003 80.7777 21.8825 80.7777C21.8648 80.7777 21.8491 80.6438 21.8491 80.4723C21.8491 80.3008 21.8679 80.3839 21.8857 80.3839C21.9034 80.3839 21.9159 80.3035 21.9159 80.4723Z" fill="#FFD037"/>
<path d="M22.0976 80.6747C21.9828 80.7551 21.8815 80.8087 21.8731 80.7832C21.8648 80.7578 21.9504 80.6814 22.0663 80.5997C22.1822 80.518 22.1363 80.5782 22.1446 80.5997C22.153 80.6211 22.2135 80.593 22.0976 80.6747Z" fill="#FFD037"/>
<path d="M19.8737 79.8613C19.8737 79.8613 19.5876 80.3409 20.0052 81.067C20.4229 81.7931 20.7685 82.4066 20.6317 82.8541C20.6317 82.8541 20.0052 81.5144 19.4884 81.4903C18.9715 81.4662 19.3056 80.6705 19.8737 79.8613Z" fill="#03A5EC"/>
<path opacity="0.1" d="M19.8737 79.8613C19.8488 79.9075 19.8291 79.958 19.8153 80.0114C19.3141 80.7669 19.0478 81.4702 19.5292 81.485C19.9771 81.501 20.5149 82.5299 20.6443 82.7898C20.6401 82.8098 20.6348 82.8295 20.6287 82.8487C20.6287 82.8487 20.0022 81.5091 19.4853 81.485C18.9684 81.4609 19.3057 80.6705 19.8737 79.8613Z" fill="black"/>
<path d="M19.342 80.4723C19.342 80.6411 19.3567 80.7777 19.3744 80.7777C19.3922 80.7777 19.4078 80.6438 19.4078 80.4723C19.4078 80.3008 19.389 80.3839 19.3713 80.3839C19.3535 80.3839 19.342 80.3035 19.342 80.4723Z" fill="#FFD037"/>
<path d="M19.1596 80.6747C19.2755 80.7551 19.3757 80.8087 19.3851 80.7832C19.3945 80.7578 19.3068 80.6814 19.1909 80.5997C19.075 80.518 19.1209 80.5782 19.1126 80.5997C19.1042 80.6211 19.0437 80.593 19.1596 80.6747Z" fill="#FFD037"/>
<path opacity="0.1" d="M20.6286 86.5219C22.2796 86.5219 23.6181 86.2586 23.6181 85.9338C23.6181 85.609 22.2796 85.3457 20.6286 85.3457C18.9776 85.3457 17.6392 85.609 17.6392 85.9338C17.6392 86.2586 18.9776 86.5219 20.6286 86.5219Z" fill="#03A5EC"/>
<path d="M22.1677 82.2057L22.1531 82.3557L22.1332 82.5674L22.1249 82.6558L22.105 82.8674L22.0956 82.9559L22.0758 83.1675L21.8471 85.5789C21.8273 85.7932 21.5537 85.9607 21.2206 85.9607H20.0366C19.7066 85.9607 19.433 85.7932 19.4101 85.5789L19.1814 83.1675L19.1615 82.9559L19.1532 82.8674L19.1323 82.6558L19.1239 82.5674L19.1041 82.3557L19.0895 82.2057C19.078 82.0837 19.2263 81.9819 19.4132 81.9819H21.845C22.0309 81.9819 22.1792 82.0837 22.1677 82.2057Z" fill="#65617D"/>
<path d="M22.153 82.3557L22.1331 82.5674H19.1238L19.104 82.3557H22.153Z" fill="#9D9CB5"/>
<path d="M22.1249 82.6558L22.1051 82.8674H19.1532L19.1323 82.6558H22.1249Z" fill="#9D9CB5"/>
<path d="M22.0965 82.9561L22.0757 83.1677H19.1812L19.1614 82.9561H22.0965Z" fill="#9D9CB5"/>
<path d="M107.399 78.0059C107.399 78.0059 107.042 80.1386 108.63 80.3904L108.728 80.1533C108.728 80.1533 107.497 78.6676 107.399 78.0059Z" fill="#03A5EC"/>
<path d="M109.233 80.136L108.864 80.2364L108.827 80.2471C108.827 80.2471 107.842 79.221 107.854 76.9302C107.986 77.2679 108.144 77.5879 108.325 77.8853C108.716 78.5485 109.159 79.4326 109.233 80.136Z" fill="#03A5EC"/>
<path d="M109.357 80.3556C109.328 80.3799 109.296 80.3954 109.261 80.4012C109.227 80.407 109.192 80.4029 109.159 80.3891C108.211 80.1051 108.533 76.1411 108.533 76.1411C108.585 76.1719 108.637 76.677 108.86 77.328C109.242 78.4707 109.662 80.0689 109.357 80.3556Z" fill="#03A5EC"/>
<path d="M111.46 78.0059C111.46 78.0059 111.522 80.1386 109.934 80.3904L109.835 80.1493C109.835 80.1493 111.362 78.6676 111.46 78.0059Z" fill="#03A5EC"/>
<path d="M111.005 76.9341C111.018 79.2249 109.738 80.251 109.738 80.251L109.7 80.2403L109.332 80.1398C109.405 79.4365 109.854 78.5524 110.239 77.8892C110.46 77.5285 110.718 77.2073 111.005 76.9341Z" fill="#03A5EC"/>
<path d="M109.695 80.1494C109.639 80.2385 109.567 80.3095 109.486 80.3571C109.461 80.3716 109.435 80.3828 109.408 80.3906C109.175 80.4602 109.094 80.2445 109.107 79.8775C109.129 79.2251 109.448 78.0931 109.733 77.2451C109.871 76.8291 110.073 76.4538 110.329 76.1426C110.329 76.1426 110.314 79.2278 109.695 80.1494Z" fill="#03A5EC"/>
<path d="M109.43 74.7507C109.43 74.7507 108.371 79.5735 109.282 80.2942C110.194 81.0149 109.663 75.1767 109.43 74.7507Z" fill="#03A5EC"/>
<path opacity="0.1" d="M107.399 78.0059C107.399 78.0059 107.042 80.1386 108.63 80.3904L108.728 80.1533C108.728 80.1533 107.497 78.6676 107.399 78.0059Z" fill="black"/>
<path opacity="0.1" d="M109.233 80.136L108.864 80.2364L108.827 80.2471C108.827 80.2471 107.842 79.221 107.854 76.9302C107.986 77.2679 108.144 77.5879 108.325 77.8853C108.716 78.5485 109.159 79.4326 109.233 80.136Z" fill="black"/>
<path opacity="0.1" d="M109.357 80.3556C109.328 80.3799 109.296 80.3954 109.261 80.4012C109.227 80.407 109.192 80.4029 109.159 80.3891C108.211 80.1051 108.533 76.1411 108.533 76.1411C108.585 76.1719 108.637 76.677 108.86 77.328C109.242 78.4707 109.662 80.0689 109.357 80.3556Z" fill="black"/>
<path opacity="0.1" d="M111.46 78.0059C111.46 78.0059 111.522 80.1386 109.934 80.3904L109.835 80.1493C109.835 80.1493 111.362 78.6676 111.46 78.0059Z" fill="black"/>
<path opacity="0.1" d="M111.005 76.9341C111.018 79.2249 109.738 80.251 109.738 80.251L109.7 80.2403L109.332 80.1398C109.405 79.4365 109.854 78.5524 110.239 77.8892C110.46 77.5285 110.718 77.2073 111.005 76.9341Z" fill="black"/>
<path opacity="0.1" d="M109.695 80.1494C109.639 80.2385 109.567 80.3095 109.486 80.3571C109.461 80.3716 109.435 80.3828 109.408 80.3906C109.175 80.4602 109.094 80.2445 109.107 79.8775C109.129 79.2251 109.448 78.0931 109.733 77.2451C109.871 76.8291 110.073 76.4538 110.329 76.1426C110.329 76.1426 110.314 79.2278 109.695 80.1494Z" fill="black"/>
<path opacity="0.1" d="M109.43 74.7507C109.43 74.7507 108.371 79.5735 109.282 80.2942C110.194 81.0149 109.663 75.1767 109.43 74.7507Z" fill="black"/>
<path d="M107.399 78.0059C107.399 78.0059 107.19 80.1386 108.777 80.3904L108.875 80.1533C108.875 80.1533 107.497 78.6676 107.399 78.0059Z" fill="#03A5EC"/>
<path d="M109.381 80.1358L109.011 80.2363L108.974 80.247C108.974 80.247 107.841 79.2209 107.851 76.9341C107.851 76.9341 108.141 77.336 108.469 77.8892C108.863 78.5484 109.306 79.4325 109.381 80.1358Z" fill="#03A5EC"/>
<path opacity="0.1" d="M109.381 80.1361L109.011 80.2366C108.661 79.8427 108.522 78.8139 108.472 77.8855C108.863 78.5486 109.306 79.4328 109.381 80.1361Z" fill="black"/>
<path d="M109.506 80.3556C109.477 80.3799 109.444 80.3955 109.409 80.4013C109.375 80.4071 109.34 80.4029 109.307 80.3891C108.358 80.1051 108.532 76.1411 108.532 76.1411C108.584 76.1719 108.789 76.677 109.007 77.328C109.39 78.4707 109.81 80.0689 109.506 80.3556Z" fill="#03A5EC"/>
<path d="M111.461 78.0059C111.461 78.0059 111.669 80.1386 110.082 80.3904L109.984 80.1533C109.984 80.1533 111.362 78.6676 111.461 78.0059Z" fill="#03A5EC"/>
<path d="M111.005 76.9341C111.018 79.2249 109.885 80.251 109.885 80.251L109.848 80.2403L109.479 80.1398C109.552 79.4365 110.001 78.5524 110.387 77.8892C110.715 77.336 111.005 76.9341 111.005 76.9341Z" fill="#03A5EC"/>
<path opacity="0.1" d="M110.387 77.8855C110.339 78.7509 110.216 79.7034 109.916 80.1482C109.896 80.1802 109.873 80.2098 109.848 80.2366L109.479 80.1361C109.552 79.4328 109.997 78.5486 110.387 77.8855Z" fill="black"/>
<path d="M109.842 80.1494C109.786 80.2389 109.715 80.31 109.633 80.3571C109.608 80.3714 109.583 80.3827 109.556 80.3906C109.322 80.4602 109.243 80.2445 109.254 79.8775C109.277 79.2251 109.597 78.0931 109.881 77.2451C110.09 76.6356 110.279 76.1734 110.329 76.1426C110.329 76.1412 110.461 79.2278 109.842 80.1494Z" fill="#03A5EC"/>
<path opacity="0.1" d="M109.506 80.3557C109.452 80.3565 109.399 80.3349 109.356 80.2941C108.91 79.9377 108.9 78.6008 109.007 77.3281C109.39 78.4708 109.81 80.069 109.506 80.3557Z" fill="black"/>
<path opacity="0.1" d="M109.842 80.1495C109.791 80.2928 109.722 80.3678 109.633 80.3571C109.588 80.3501 109.544 80.3289 109.507 80.2955C109.391 80.1934 109.302 80.0473 109.254 79.8775C109.277 79.2251 109.597 78.0931 109.881 77.2451C109.983 78.42 110.017 79.6659 109.842 80.1495Z" fill="black"/>
<path d="M109.43 74.7507C109.43 74.7507 108.519 79.5735 109.43 80.2942C110.34 81.0149 109.664 75.1767 109.43 74.7507Z" fill="#03A5EC"/>
<path d="M111.178 80.0583H107.386V80.8635H107.965L107.979 80.9586L108.211 82.5219H110.415L110.647 80.9586L110.661 80.8635H111.178V80.0583Z" fill="#4B4770"/>
<path opacity="0.1" d="M111.178 80.0583H107.386V80.8635H107.965L107.979 80.9586L108.211 82.5219H110.415L110.647 80.9586L110.661 80.8635H111.178V80.0583Z" fill="black"/>
<path d="M110.858 80.531L110.795 80.9584L110.563 82.5217H108.358L108.127 80.9584L108.063 80.531H110.858Z" fill="#4B4770"/>
<path opacity="0.1" d="M110.858 80.531L110.795 80.9584H108.127L108.063 80.531H110.858Z" fill="black"/>
<path d="M111.325 80.0583H107.533V80.8635H111.325V80.0583Z" fill="#4B4770"/>
<path d="M14.5545 93.8352C14.4545 94.012 14.3744 94.2059 14.3164 94.4112C14.3018 94.4608 14.2872 94.5184 14.2726 94.5733C14.2461 94.5575 14.2185 94.5449 14.1901 94.5358C14.0684 94.4964 13.9425 94.4828 13.8173 94.4956C13.8173 94.4327 13.8236 94.3617 13.8246 94.2987C13.8403 93.5927 13.7756 92.6094 13.2503 93.0261C12.747 93.4279 13.1062 94.0978 13.431 94.5265C13.4592 94.564 13.4874 94.5988 13.5145 94.6323C13.218 94.9002 13.1616 95.5339 13.1125 96.1916C13.0634 96.8494 12.628 97.5688 12.3388 97.9774C12.3095 98.0189 12.2834 98.0564 12.2573 98.0912C12.1404 97.9715 12.0051 97.8849 11.8602 97.8371C11.7153 97.7893 11.5642 97.7814 11.4168 97.8139C11.4053 97.7563 11.3917 97.696 11.3781 97.6331C11.1443 96.5493 10.6587 94.6725 10.0395 94.2612L10.121 94.1272C10.3841 93.6865 10.6806 93.0301 10.2431 92.8626C9.80563 92.6952 9.76595 93.4306 9.78996 93.9826C9.79414 94.0522 9.79832 94.1179 9.8025 94.1795C9.71503 94.1846 9.62932 94.2127 9.55066 94.262C9.47199 94.3113 9.40205 94.3808 9.34515 94.4662L9.27728 94.363C8.92226 93.8272 8.27175 92.9738 8.0744 93.6182C7.89062 94.2183 8.46387 94.998 8.86692 95.4495L8.89198 95.4776C8.62154 96.8856 9.8025 98.0336 10.4384 98.536L10.5209 98.6003C9.64378 99.9265 9.10186 102.413 9.10186 102.413L11.5577 102.976C11.5577 102.976 13.1866 101.172 12.9778 99.4791H12.9945C14.6224 99.0611 14.992 96.8347 14.7383 95.5124L14.7675 95.4977C15.0641 95.3421 15.3239 95.09 15.5214 94.7662C15.9767 93.9558 15.0244 93.0394 14.5545 93.8352Z" fill="#03A5EC"/>
<path opacity="0.1" d="M14.5545 93.8352C14.4545 94.012 14.3744 94.2059 14.3164 94.4112C14.3018 94.4608 14.2872 94.5184 14.2726 94.5733C14.2461 94.5575 14.2185 94.5449 14.1901 94.5358C14.0684 94.4964 13.9425 94.4828 13.8173 94.4956C13.8173 94.4327 13.8236 94.3617 13.8246 94.2987C13.8403 93.5927 13.7756 92.6094 13.2503 93.0261C12.747 93.4279 13.1062 94.0978 13.431 94.5265C13.4592 94.564 13.4874 94.5988 13.5145 94.6323C13.218 94.9002 13.1616 95.5339 13.1125 96.1916C13.0634 96.8494 12.628 97.5688 12.3388 97.9774C12.3095 98.0189 12.2834 98.0564 12.2573 98.0912C12.1404 97.9715 12.0051 97.8849 11.8602 97.8371C11.7153 97.7893 11.5642 97.7814 11.4168 97.8139C11.4053 97.7563 11.3917 97.696 11.3781 97.6331C11.1443 96.5493 10.6587 94.6725 10.0395 94.2612L10.121 94.1272C10.3841 93.6865 10.6806 93.0301 10.2431 92.8626C9.80563 92.6952 9.76595 93.4306 9.78996 93.9826C9.79414 94.0522 9.79832 94.1179 9.8025 94.1795C9.71503 94.1846 9.62932 94.2127 9.55066 94.262C9.47199 94.3113 9.40205 94.3808 9.34515 94.4662L9.27728 94.363C8.92226 93.8272 8.27175 92.9738 8.0744 93.6182C7.89062 94.2183 8.46387 94.998 8.86692 95.4495L8.89198 95.4776C8.62154 96.8856 9.8025 98.0336 10.4384 98.536L10.5209 98.6003C9.64378 99.9265 9.10186 102.413 9.10186 102.413L11.5577 102.976C11.5577 102.976 13.1866 101.172 12.9778 99.4791H12.9945C14.6224 99.0611 14.992 96.8347 14.7383 95.5124L14.7675 95.4977C15.0641 95.3421 15.3239 95.09 15.5214 94.7662C15.9767 93.9558 15.0244 93.0394 14.5545 93.8352Z" fill="black"/>
<path d="M9.66573 94.7514L9.37859 95.8232C9.37859 95.8232 9.21883 95.6785 9.01731 95.4507C8.61426 94.9993 8.04102 94.2196 8.22479 93.6194C8.42214 92.9751 9.07265 93.8258 9.42766 94.3643C9.57071 94.5786 9.66573 94.7514 9.66573 94.7514Z" fill="#03A5EC"/>
<path d="M10.2714 94.1285C10.1842 94.2761 10.0908 94.4174 9.9916 94.5519C9.96708 94.3638 9.95001 94.1742 9.94043 93.9839C9.91641 93.4319 9.96236 92.6992 10.3936 92.8639C10.8248 93.0287 10.5346 93.6878 10.2714 94.1285Z" fill="#03A5EC"/>
<path d="M13.9804 94.2986C13.972 94.6536 13.9449 94.9376 13.9449 94.9376C13.8186 94.8108 13.6989 94.6734 13.5867 94.5263C13.262 94.0936 12.9028 93.4265 13.4061 93.0259C13.9261 92.6079 13.9908 93.5926 13.9804 94.2986Z" fill="#03A5EC"/>
<path d="M15.672 94.7634C15.4746 95.0872 15.2147 95.3393 14.9181 95.4948C14.8358 95.5405 14.7514 95.5799 14.6655 95.6127L14.3271 95.0032C14.3627 94.8018 14.4094 94.6039 14.4671 94.4111C14.525 94.2057 14.6052 94.0118 14.7051 93.835C15.1729 93.0393 16.1273 93.9556 15.672 94.7634Z" fill="#03A5EC"/>
<path opacity="0.1" d="M9.42769 94.3643C9.57074 94.5786 9.66576 94.7447 9.66576 94.7447L9.37861 95.8164C9.37861 95.8164 9.21886 95.6717 9.01733 95.444C9.06211 95.0987 9.17337 94.7731 9.34103 94.4969C9.36922 94.4527 9.3995 94.4071 9.42769 94.3643Z" fill="black"/>
<path opacity="0.1" d="M10.2714 94.1286C10.1842 94.2761 10.0908 94.4174 9.99159 94.5519C9.96708 94.3638 9.95001 94.1742 9.94043 93.9839C10.0598 93.9871 10.1754 94.0376 10.2714 94.1286Z" fill="black"/>
<path d="M11.6832 98.41L10.969 98.8119C10.969 98.8119 10.8134 98.7154 10.5889 98.5359C9.83812 97.9438 8.3293 96.4528 9.33588 94.6952C10.3425 92.9376 11.1914 96.0897 11.5286 97.6317C11.6299 98.1005 11.6832 98.41 11.6832 98.41Z" fill="#03A5EC"/>
<path opacity="0.1" d="M13.5813 94.5266C13.6852 94.3892 13.8259 94.3078 13.975 94.2988C13.9666 94.6538 13.9394 94.9378 13.9394 94.9378C13.8131 94.811 13.6935 94.6736 13.5813 94.5266Z" fill="black"/>
<path opacity="0.1" d="M14.9201 95.4949C14.8378 95.5406 14.7534 95.58 14.6674 95.6128L14.3291 95.0033C14.3646 94.8018 14.4114 94.604 14.469 94.4111C14.6852 94.5746 14.846 94.9818 14.9201 95.4949Z" fill="black"/>
<path d="M13.1452 99.4764C13.1065 99.4871 13.0658 99.4964 13.0251 99.5045C10.6308 99.9707 12.2357 98.3136 12.2357 98.3136C12.2357 98.3136 12.3401 98.1796 12.4894 97.9773C12.7787 97.5687 13.2131 96.8533 13.2632 96.1916C13.3384 95.1962 13.425 94.2625 14.3408 94.5358C15.2398 94.8064 15.4121 98.8936 13.1452 99.4764Z" fill="#03A5EC"/>
<path d="M13.1001 107.125H8.52563V108.668H13.1001V107.125Z" fill="#D4DFEC"/>
<path d="M13.7756 102.109H7.79883V107.494H13.7756V102.109Z" fill="#D4DFEC"/>
<path opacity="0.1" d="M13.1001 107.125H8.52563V108.668H13.1001V107.125Z" fill="black"/>
<path opacity="0.1" d="M13.7756 102.109H7.79883V107.494H13.7756V102.109Z" fill="black"/>
<path d="M13.4009 107.125H8.82642V108.668H13.4009V107.125Z" fill="#D4DFEC"/>
<path opacity="0.1" d="M11.5286 97.6331C11.633 98.0939 11.6832 98.41 11.6832 98.41L10.9689 98.8119C10.9689 98.8119 10.8134 98.7155 10.5889 98.536C10.8687 98.0818 11.184 97.7389 11.5286 97.6331Z" fill="black"/>
<path opacity="0.1" d="M13.1452 99.4763C13.1065 99.4871 13.0658 99.4964 13.0251 99.5045C10.6308 99.9707 12.2357 98.3135 12.2357 98.3135C12.2357 98.3135 12.3401 98.1796 12.4894 97.9773C12.9363 98.4368 13.1212 98.9539 13.1452 99.4763Z" fill="black"/>
<path d="M9.2522 102.414C9.2522 102.414 10.5929 96.2519 12.4735 98.1529C14.354 100.054 11.7081 102.976 11.7081 102.976L9.2522 102.414Z" fill="#03A5EC"/>
<path opacity="0.1" d="M9.92917 95.8538C10.0122 95.8538 10.0795 95.7675 10.0795 95.6609C10.0795 95.5544 10.0122 95.468 9.92917 95.468C9.84613 95.468 9.77881 95.5544 9.77881 95.6609C9.77881 95.7675 9.84613 95.8538 9.92917 95.8538Z" fill="black"/>
<path opacity="0.1" d="M9.91648 96.7545C9.99952 96.7545 10.0668 96.6681 10.0668 96.5616C10.0668 96.455 9.99952 96.3687 9.91648 96.3687C9.83343 96.3687 9.76611 96.455 9.76611 96.5616C9.76611 96.6681 9.83343 96.7545 9.91648 96.7545Z" fill="black"/>
<path opacity="0.1" d="M14.2778 96.0308C14.3608 96.0308 14.4282 95.9445 14.4282 95.8379C14.4282 95.7314 14.3608 95.645 14.2778 95.645C14.1948 95.645 14.1274 95.7314 14.1274 95.8379C14.1274 95.9445 14.1948 96.0308 14.2778 96.0308Z" fill="black"/>
<path opacity="0.1" d="M10.7695 100.646C10.8525 100.646 10.9199 100.56 10.9199 100.453C10.9199 100.347 10.8525 100.26 10.7695 100.26C10.6865 100.26 10.6191 100.347 10.6191 100.453C10.6191 100.56 10.6865 100.646 10.7695 100.646Z" fill="black"/>
<path opacity="0.1" d="M13.9646 97.5257C14.0476 97.5257 14.1149 97.4393 14.1149 97.3328C14.1149 97.2263 14.0476 97.1399 13.9646 97.1399C13.8815 97.1399 13.8142 97.2263 13.8142 97.3328C13.8142 97.4393 13.8815 97.5257 13.9646 97.5257Z" fill="black"/>
<path opacity="0.1" d="M12.4111 99.5206C12.4941 99.5206 12.5615 99.4342 12.5615 99.3277C12.5615 99.2211 12.4941 99.1348 12.4111 99.1348C12.3281 99.1348 12.2607 99.2211 12.2607 99.3277C12.2607 99.4342 12.3281 99.5206 12.4111 99.5206Z" fill="black"/>
<path opacity="0.1" d="M10.4426 96.2398C10.5256 96.2398 10.593 96.1535 10.593 96.0469C10.593 95.9404 10.5256 95.854 10.4426 95.854C10.3596 95.854 10.2922 95.9404 10.2922 96.0469C10.2922 96.1535 10.3596 96.2398 10.4426 96.2398Z" fill="black"/>
<path opacity="0.1" d="M13.8645 96.6097C13.9475 96.6097 14.0148 96.5233 14.0148 96.4168C14.0148 96.3102 13.9475 96.2239 13.8645 96.2239C13.7814 96.2239 13.7141 96.3102 13.7141 96.4168C13.7141 96.5233 13.7814 96.6097 13.8645 96.6097Z" fill="black"/>
<path opacity="0.1" d="M13.3508 98.1046C13.4338 98.1046 13.5012 98.0182 13.5012 97.9117C13.5012 97.8051 13.4338 97.7188 13.3508 97.7188C13.2678 97.7188 13.2004 97.8051 13.2004 97.9117C13.2004 98.0182 13.2678 98.1046 13.3508 98.1046Z" fill="black"/>
<path opacity="0.1" d="M11.7719 100.501C11.855 100.501 11.9223 100.415 11.9223 100.308C11.9223 100.202 11.855 100.115 11.7719 100.115C11.6889 100.115 11.6216 100.202 11.6216 100.308C11.6216 100.415 11.6889 100.501 11.7719 100.501Z" fill="black"/>
<path opacity="0.1" d="M11.4463 99.5528C11.5293 99.5528 11.5966 99.4664 11.5966 99.3599C11.5966 99.2534 11.5293 99.167 11.4463 99.167C11.3632 99.167 11.2959 99.2534 11.2959 99.3599C11.2959 99.4664 11.3632 99.5528 11.4463 99.5528Z" fill="black"/>
<path opacity="0.1" d="M10.6682 97.4134C10.7512 97.4134 10.8185 97.327 10.8185 97.2205C10.8185 97.1139 10.7512 97.0276 10.6682 97.0276C10.5851 97.0276 10.5178 97.1139 10.5178 97.2205C10.5178 97.327 10.5851 97.4134 10.6682 97.4134Z" fill="black"/>
<path opacity="0.1" d="M13.4009 107.125H8.82642V107.688H13.4009V107.125Z" fill="black"/>
<path d="M14.0764 102.109H8.09961V107.494H14.0764V102.109Z" fill="#D4DFEC"/>
<path opacity="0.1" d="M11.9724 101.369C12.0554 101.369 12.1227 101.283 12.1227 101.176C12.1227 101.07 12.0554 100.983 11.9724 100.983C11.8893 100.983 11.822 101.07 11.822 101.176C11.822 101.283 11.8893 101.369 11.9724 101.369Z" fill="black"/>
<path opacity="0.1" d="M11.0703 101.611C11.1533 101.611 11.2206 101.524 11.2206 101.418C11.2206 101.311 11.1533 101.225 11.0703 101.225C10.9872 101.225 10.9199 101.311 10.9199 101.418C10.9199 101.524 10.9872 101.611 11.0703 101.611Z" fill="black"/>
<path opacity="0.1" d="M5.22086 8.36747C5.82406 8.36747 6.31306 7.7401 6.31306 6.96621C6.31306 6.19231 5.82406 5.56494 5.22086 5.56494C4.61766 5.56494 4.12866 6.19231 4.12866 6.96621C4.12866 7.7401 4.61766 8.36747 5.22086 8.36747Z" fill="#03A5EC"/>
<path opacity="0.1" d="M110.115 52.9278C110.922 52.9278 111.576 52.0881 111.576 51.0523C111.576 50.0164 110.922 49.1768 110.115 49.1768C109.307 49.1768 108.653 50.0164 108.653 51.0523C108.653 52.0881 109.307 52.9278 110.115 52.9278Z" fill="#03A5EC"/>
<path opacity="0.1" d="M112.933 48.4025C113.522 48.4025 114 47.7896 114 47.0334C114 46.2773 113.522 45.6643 112.933 45.6643C112.344 45.6643 111.866 46.2773 111.866 47.0334C111.866 47.7896 112.344 48.4025 112.933 48.4025Z" fill="#03A5EC"/>
<path opacity="0.1" d="M7.10026 3.751C7.90761 3.751 8.56209 2.91131 8.56209 1.8755C8.56209 0.839689 7.90761 0 7.10026 0C6.29291 0 5.63843 0.839689 5.63843 1.8755C5.63843 2.91131 6.29291 3.751 7.10026 3.751Z" fill="#03A5EC"/>
<path opacity="0.1" d="M1.46183 12.3247C2.26918 12.3247 2.92367 11.485 2.92367 10.4492C2.92367 9.41342 2.26918 8.57373 1.46183 8.57373C0.654485 8.57373 0 9.41342 0 10.4492C0 11.485 0.654485 12.3247 1.46183 12.3247Z" fill="#03A5EC"/>
</g>
<defs>
<linearGradient id="paint0_linear" x1="55.041" y1="103.936" x2="55.041" y2="25.5001" gradientUnits="userSpaceOnUse">
<stop stop-color="#808080" stop-opacity="0.25"/>
<stop offset="0.54" stop-color="#808080" stop-opacity="0.12"/>
<stop offset="1" stop-color="#808080" stop-opacity="0.1"/>
</linearGradient>
<clipPath id="clip0">
<rect width="114" height="111" fill="white"/>
</clipPath>
</defs>
</svg>
