<svg width="114" height="111" viewBox="0 0 114 111" fill="none" xmlns="http://www.w3.org/2000/svg">
<g clip-path="url(#clip0)">
<path d="M22.3979 28.0171H21.053V53.267H22.3979V28.0171Z" fill="#6C63FF" stroke="#6C63FF" stroke-miterlimit="10"/>
<path d="M63.1747 45.6575H49.8147V57.0283H63.1747V45.6575Z" fill="#F55F44"/>
<path d="M76.5345 45.6575H63.1746V57.0283H76.5345V45.6575Z" fill="#4D8AF0"/>
<path d="M89.8947 45.6575H76.5347V57.0283H89.8947V45.6575Z" fill="#3AD29F"/>
<path d="M63.077 57.0283H49.717V68.3991H63.077V57.0283Z" fill="#4D8AF0"/>
<path d="M49.8146 57.0283H36.4546V68.3991H49.8146V57.0283Z" fill="#F55F44"/>
<path d="M76.5345 57.0283H63.1746V68.3991H76.5345V57.0283Z" fill="#3AD29F"/>
<path d="M89.8947 57.0283H76.5347V68.3991H89.8947V57.0283Z" fill="#FDD835"/>
<g opacity="0.1">
<path opacity="0.1" d="M53.9589 45.5889H52.2036V56.9597H53.9589V45.5889Z" fill="black"/>
<path opacity="0.1" d="M57.3722 45.5889H55.6169V56.9597H57.3722V45.5889Z" fill="black"/>
<path opacity="0.1" d="M60.7851 45.5889H59.0298V56.9597H60.7851V45.5889Z" fill="black"/>
</g>
<g opacity="0.1">
<path opacity="0.1" d="M67.3193 45.5889H65.564V56.9597H67.3193V45.5889Z" fill="black"/>
<path opacity="0.1" d="M70.7324 45.5889H68.9771V56.9597H70.7324V45.5889Z" fill="black"/>
<path opacity="0.1" d="M74.1455 45.5889H72.3901V56.9597H74.1455V45.5889Z" fill="black"/>
</g>
<g opacity="0.1">
<path opacity="0.1" d="M80.6792 45.5889H78.9238V56.9597H80.6792V45.5889Z" fill="black"/>
<path opacity="0.1" d="M84.0922 45.5889H82.3369V56.9597H84.0922V45.5889Z" fill="black"/>
<path opacity="0.1" d="M87.5053 45.5889H85.75V56.9597H87.5053V45.5889Z" fill="black"/>
</g>
<g opacity="0.1">
<path opacity="0.1" d="M53.9589 56.9597H52.2036V68.3305H53.9589V56.9597Z" fill="black"/>
<path opacity="0.1" d="M57.3722 56.9597H55.6169V68.3305H57.3722V56.9597Z" fill="black"/>
<path opacity="0.1" d="M60.7851 56.9597H59.0298V68.3305H60.7851V56.9597Z" fill="black"/>
</g>
<g opacity="0.1">
<path opacity="0.1" d="M40.5991 56.9597H38.8438V68.3305H40.5991V56.9597Z" fill="black"/>
<path opacity="0.1" d="M44.0124 56.9597H42.2571V68.3305H44.0124V56.9597Z" fill="black"/>
<path opacity="0.1" d="M47.4253 56.9597H45.6699V68.3305H47.4253V56.9597Z" fill="black"/>
</g>
<g opacity="0.1">
<path opacity="0.1" d="M67.3193 56.9597H65.564V68.3305H67.3193V56.9597Z" fill="black"/>
<path opacity="0.1" d="M70.7324 56.9597H68.9771V68.3305H70.7324V56.9597Z" fill="black"/>
<path opacity="0.1" d="M74.1455 56.9597H72.3901V68.3305H74.1455V56.9597Z" fill="black"/>
</g>
<g opacity="0.1">
<path opacity="0.1" d="M80.6792 56.9597H78.9238V68.3305H80.6792V56.9597Z" fill="black"/>
<path opacity="0.1" d="M84.0922 56.9597H82.3369V68.3305H84.0922V56.9597Z" fill="black"/>
<path opacity="0.1" d="M87.5053 56.9597H85.75V68.3305H87.5053V56.9597Z" fill="black"/>
</g>
<path d="M106.091 81.6946H2.65161V86.1606H106.091V81.6946Z" fill="#6C63FF" stroke="#6C63FF" stroke-miterlimit="10"/>
<path d="M96.676 64.0025H35.7864C35.3976 64.0009 35.0251 63.7832 34.7502 63.397C34.4753 63.0108 34.3203 62.4874 34.3192 61.9413V49.3465L10.5991 45.6233V83.9276H98.1433V61.9413C98.1421 62.4874 97.9872 63.0108 97.7123 63.397C97.4374 63.7832 97.0648 64.0009 96.676 64.0025Z" fill="#03A5EC" stroke="#03A5EC" stroke-miterlimit="10"/>
<path d="M19.5247 49.7458H10.5991V56.9601H19.5247V49.7458Z" fill="white"/>
<path d="M21.7256 31.5382C23.1437 31.5382 24.2932 29.9233 24.2932 27.9311C24.2932 25.9389 23.1437 24.324 21.7256 24.324C20.3075 24.324 19.158 25.9389 19.158 27.9311C19.158 29.9233 20.3075 31.5382 21.7256 31.5382Z" fill="#6C63FF" stroke="#6C63FF" stroke-miterlimit="10"/>
<path d="M11.6909 85.324C12.6001 81.8755 15.4591 80.0795 18.0747 80.2233C20.6904 80.3671 23.1266 82.0272 25.4712 83.6624C27.8159 85.2976 30.2436 86.9738 32.8581 87.1539C38.6682 87.5542 43.5578 80.6051 49.3477 79.8165C56.2306 78.879 62.3387 86.7533 69.2501 87.0777C70.4655 87.1347 71.7051 86.9459 72.8244 86.2777C73.7986 85.6962 74.6476 84.7747 75.5677 84.0395C80.2114 80.3292 86.0196 81.7301 91.1571 83.7874C96.2947 85.8446 101.628 88.4802 106.85 86.8997" fill="#4D8AF0"/>
<path d="M0 91.9751C0.909213 88.5267 3.76818 86.7307 6.38381 86.8744C8.99944 87.0182 11.4357 88.6784 13.7803 90.3135C16.1249 91.9487 18.5527 93.6249 21.1672 93.805C26.9773 94.2053 31.8669 87.2563 37.6568 86.4676C44.5397 85.5301 50.6478 93.4044 57.5592 93.7287C58.7746 93.7858 60.0142 93.597 61.1335 92.9288C62.1077 92.3473 62.9567 91.4258 63.8768 90.6906C68.5205 86.9804 74.3287 88.3812 79.4662 90.4385C84.6037 92.4957 89.9369 95.1312 95.1593 93.5508" fill="#4D8AF0"/>
<path d="M12.4639 100.526C13.3731 97.0779 16.232 95.2819 18.8477 95.4257C21.4633 95.5695 23.8996 97.2296 26.2442 98.8648C28.5888 100.5 31.0166 102.176 33.6311 102.356C39.4412 102.757 44.3307 95.8075 50.1206 95.0189C57.0035 94.0814 63.1117 101.956 70.023 102.28C71.2385 102.337 72.4781 102.148 73.5973 101.48C74.5716 100.899 75.4205 99.9771 76.3407 99.2419C80.9843 95.5316 86.7925 96.9325 91.9301 98.9898C97.0676 101.047 102.401 103.683 107.623 102.102" fill="#4D8AF0"/>
<path d="M18.8408 108.942C19.75 105.493 22.609 103.697 25.2246 103.841C27.8403 103.985 30.2765 105.645 32.6211 107.28C34.9657 108.916 37.3935 110.592 40.008 110.772C45.8181 111.172 50.7077 104.223 56.4976 103.434C63.3805 102.497 69.4886 110.371 76.4 110.696C77.6154 110.753 78.855 110.564 79.9743 109.896C80.9485 109.314 81.7975 108.393 82.7176 107.657C87.3613 103.947 93.1695 105.348 98.307 107.405C103.445 109.463 108.778 112.098 114 110.518" fill="#4D8AF0"/>
<g opacity="0.5">
<path opacity="0.5" d="M32.1503 19.5681L31.3072 19.3585C31.3292 19.0657 31.3632 18.7749 31.409 18.4877C31.5521 15.9487 30.2989 13.277 28.5371 12.6032L28.7626 11.4399C30.3679 12.0539 31.6059 13.9411 32.0756 16.139C32.4907 15.1408 33.0492 14.2749 33.7154 13.5963C34.3816 12.9177 35.141 12.4413 35.9454 12.1972L36.1151 13.3792C34.2683 13.9024 32.6985 16.1086 32.2595 18.6797C32.2388 18.9792 32.2022 19.2761 32.1503 19.5681Z" fill="url(#paint0_linear)"/>
</g>
<path d="M32.1756 18.9781L31.455 18.7989C31.4738 18.5487 31.5029 18.3001 31.542 18.0546C31.6643 15.8843 30.5931 13.6006 29.0872 13.0247L29.2799 12.0303C30.6521 12.5551 31.7103 14.1682 32.1118 16.0469C32.4667 15.1937 32.944 14.4536 33.5135 13.8735C34.0829 13.2935 34.7321 12.8862 35.4196 12.6776L35.5647 13.6879C33.9861 14.1352 32.6443 16.0209 32.269 18.2187C32.2513 18.4747 32.2201 18.7285 32.1756 18.9781Z" fill="#706A6A"/>
<g opacity="0.5">
<path opacity="0.5" d="M50.1861 8.67822L49.6423 8.54304C49.6565 8.35418 49.6784 8.16664 49.7079 7.98133C49.8003 6.34363 48.9919 4.62029 47.8555 4.18567L48.0009 3.4353C49.0364 3.83131 49.8349 5.04864 50.1379 6.46635C50.4057 5.82251 50.7659 5.26397 51.1956 4.82625C51.6254 4.38853 52.1152 4.08119 52.634 3.92378L52.7435 4.68618C51.5523 5.0237 50.5397 6.44673 50.2565 8.10519C50.2432 8.29838 50.2196 8.48991 50.1861 8.67822Z" fill="url(#paint1_linear)"/>
</g>
<g opacity="0.5">
<path opacity="0.5" d="M83.3208 5.24291L82.7771 5.10773C82.7912 4.91888 82.8132 4.73133 82.8427 4.54603C82.935 2.90832 82.1267 1.18499 80.9902 0.750372L81.1357 0C82.1711 0.396008 82.9697 1.61334 83.2727 3.03104C83.5405 2.3872 83.9007 1.82867 84.3304 1.39095C84.7601 0.953227 85.25 0.645891 85.7688 0.488476L85.8783 1.25087C84.687 1.5884 83.6745 3.01142 83.3913 4.66989C83.3779 4.86308 83.3544 5.05461 83.3208 5.24291Z" fill="url(#paint2_linear)"/>
</g>
<path d="M50.2256 7.76018L49.8723 7.67233C49.8815 7.54961 49.8957 7.42774 49.9149 7.30732C49.9749 6.24313 49.4496 5.12329 48.7112 4.84087L48.8057 4.35327C49.1359 4.49221 49.4361 4.74531 49.6787 5.08941C49.9213 5.43351 50.0986 5.85761 50.1943 6.32288C50.3683 5.90451 50.6024 5.54157 50.8816 5.25713C51.1609 4.9727 51.4792 4.77299 51.8163 4.6707L51.8875 5.16611C51.4986 5.29135 51.1418 5.5651 50.8567 5.95715C50.5715 6.34919 50.369 6.84429 50.2714 7.38781C50.2627 7.51335 50.2474 7.63782 50.2256 7.76018Z" fill="#706A6A"/>
<path d="M83.3604 4.32487L83.007 4.23702C83.0163 4.1143 83.0305 3.99243 83.0497 3.87201C83.1097 2.80782 82.5844 1.68798 81.8459 1.40557L81.9404 0.917969C82.2707 1.0569 82.5709 1.31001 82.8135 1.65411C83.0561 1.9982 83.2334 2.4223 83.3291 2.88757C83.5031 2.4692 83.7372 2.10626 84.0164 1.82183C84.2957 1.53739 84.614 1.33768 84.9511 1.23539L85.0222 1.7308C84.6333 1.85605 84.2766 2.12979 83.9914 2.52184C83.7063 2.91388 83.5037 3.40898 83.4062 3.95251C83.3975 4.07804 83.3822 4.20251 83.3604 4.32487Z" fill="#706A6A"/>
<g opacity="0.5">
<path opacity="0.5" d="M16.9188 24.68C21.4431 24.68 25.1108 19.5275 25.1108 13.1716C25.1108 6.8156 21.4431 1.66309 16.9188 1.66309C12.3945 1.66309 8.72681 6.8156 8.72681 13.1716C8.72681 19.5275 12.3945 24.68 16.9188 24.68Z" fill="url(#paint3_linear)"/>
</g>
<path d="M16.9188 23.8212C21.1054 23.8212 24.4994 19.0532 24.4994 13.1716C24.4994 7.28997 21.1054 2.52197 16.9188 2.52197C12.7321 2.52197 9.33813 7.28997 9.33813 13.1716C9.33813 19.0532 12.7321 23.8212 16.9188 23.8212Z" fill="#FDD835"/>
</g>
<defs>
<linearGradient id="paint0_linear" x1="32.3261" y1="19.5681" x2="32.3261" y2="11.4399" gradientUnits="userSpaceOnUse">
<stop stop-color="#808080" stop-opacity="0.25"/>
<stop offset="0.53514" stop-color="#808080" stop-opacity="0.12"/>
<stop offset="1" stop-color="#808080" stop-opacity="0.1"/>
</linearGradient>
<linearGradient id="paint1_linear" x1="2727.48" y1="923.113" x2="2727.48" y2="763.082" gradientUnits="userSpaceOnUse">
<stop stop-color="#808080" stop-opacity="0.25"/>
<stop offset="0.53514" stop-color="#808080" stop-opacity="0.12"/>
<stop offset="1" stop-color="#808080" stop-opacity="0.1"/>
</linearGradient>
<linearGradient id="paint2_linear" x1="4085.27" y1="814.819" x2="4085.27" y2="654.788" gradientUnits="userSpaceOnUse">
<stop stop-color="#808080" stop-opacity="0.25"/>
<stop offset="0.53514" stop-color="#808080" stop-opacity="0.12"/>
<stop offset="1" stop-color="#808080" stop-opacity="0.1"/>
</linearGradient>
<linearGradient id="paint3_linear" x1="2275.86" y1="3308.81" x2="2275.86" y2="224.542" gradientUnits="userSpaceOnUse">
<stop stop-color="#808080" stop-opacity="0.25"/>
<stop offset="0.53514" stop-color="#808080" stop-opacity="0.12"/>
<stop offset="1" stop-color="#808080" stop-opacity="0.1"/>
</linearGradient>
<clipPath id="clip0">
<rect width="114" height="111" fill="white"/>
</clipPath>
</defs>
</svg>
