<svg width="114" height="111" viewBox="0 0 114 111" fill="none" xmlns="http://www.w3.org/2000/svg">
<g clip-path="url(#clip0)">
<path d="M57 101.424C88.4802 101.424 114 78.7195 114 50.712C114 22.7045 88.4802 0 57 0C25.5198 0 0 22.7045 0 50.712C0 78.7195 25.5198 101.424 57 101.424Z" fill="#03A5EC"/>
<path d="M63.1244 111L69.2012 91.3452C69.2012 91.3452 85.603 77.5147 84.6466 66.4528C84.6149 66.0868 84.6466 66.0586 84.6466 66.0586L84.4362 63.282C84.4225 63.1017 84.3487 62.9291 84.2241 62.7864C84.0995 62.6437 83.9299 62.5373 83.7369 62.4809C83.544 62.4245 83.3365 62.4207 83.1411 62.4698C82.9456 62.519 82.7711 62.6189 82.6399 62.7569L79.3926 66.1712L78.2234 67.5711C78.2234 67.5711 75.3414 70.6766 70.0242 69.2687L68.315 69.0434C68.315 69.0434 64.0422 70.8738 58.2819 67.9452C58.2819 67.9452 60.3075 70.0853 55.3701 65.6925C50.4326 61.2998 43.7861 54.429 43.7861 54.429C42.7539 53.4467 43.477 50.705 44.9857 50.6234C48.4099 50.438 52.3132 49.6226 53.4109 48.5318C53.8294 48.1133 54.1452 47.6218 54.3381 47.0886C54.5496 46.5107 54.6133 45.8982 54.5247 45.2956C54.436 44.6931 54.1972 44.1157 53.8257 43.6058C53.4542 43.0958 52.9593 42.6661 52.3773 42.3481C51.7952 42.0301 51.1407 41.8317 50.4615 41.7675C46.4816 41.3955 40.008 41.1083 38.1568 41.7409C37.9814 41.8016 37.8096 41.8702 37.642 41.9463C36.5149 42.463 35.5554 43.2279 34.8548 44.1682C34.1543 45.1084 33.7362 46.1927 33.6403 47.3175C33.1199 52.9777 32.4361 65.3874 35.5765 71.9998L39.4816 80.2225L27.3912 110.747L63.1244 111Z" fill="#2F2E41"/>
<path d="M80.4974 64.7388C80.4974 64.7388 75.4339 65.9783 75.282 61.585C75.282 61.585 74.9269 40.965 57.5985 48.3807C40.27 55.7964 48.8329 66.3549 48.8329 66.3549C48.8329 66.3549 51.2127 66.4026 50.7458 67.9995C50.279 69.5963 49.5446 71.5625 49.5446 71.5625C49.5446 71.5625 49.4915 73.3818 51.9149 72.7344C51.9149 72.7344 52.6304 73.0165 51.6379 74.228C51.6379 74.228 52.0763 76.0036 53.3269 75.5468C53.3269 75.5468 52.4558 75.797 52.9037 76.4485C53.3516 77.1 53.4977 77.6918 54.2568 77.2787C55.0159 76.8657 55.6536 77.4138 55.6536 77.4138C55.6536 77.4138 55.7713 81.3782 60.1361 79.0029C64.501 76.6276 64.0967 75.281 66.209 75.6981C66.4147 75.738 66.6228 75.768 66.8322 75.7879C68.1316 75.9057 69.443 75.7175 70.6348 75.2421C71.8266 74.7668 72.857 74.021 73.6226 73.0795L80.4974 64.7388Z" fill="#03A5EC"/>
<path d="M79.3751 54.2935C79.2193 54.2935 79.0636 54.3006 78.9086 54.3149C78.2326 54.3751 77.5808 54.5715 77.0027 54.8891C76.4247 55.2067 75.9354 55.6372 75.5721 56.148L70.5895 63.1139C70.2513 63.5863 70.0537 64.1275 70.0155 64.6866C69.9773 65.2457 70.0997 65.8043 70.3711 66.3096C70.6425 66.815 71.0541 67.2506 71.567 67.5754C72.08 67.9002 72.6774 68.1035 73.303 68.1661L73.4006 68.1756C73.9843 68.2283 74.5738 68.1569 75.1203 67.9671C75.6669 67.7773 76.155 67.4747 76.5443 67.0841L82.6942 60.9286C83.4429 60.1912 83.8523 59.2303 83.841 58.2367C83.8298 57.2431 83.3986 56.2897 82.6334 55.5659C82.6036 55.5377 82.5738 55.51 82.544 55.4828C82.1325 55.1056 81.6398 54.8059 81.0954 54.6016C80.551 54.3973 79.966 54.2925 79.3751 54.2935Z" fill="#2F2E41"/>
<path d="M72.0487 46.9116C71.2614 46.9117 70.487 47.089 69.7976 47.4272C69.1081 47.7653 68.5261 48.2532 68.1057 48.8454L60.7588 59.2177C60.3635 59.7695 60.1227 60.3977 60.0566 61.0495C59.9905 61.7013 60.101 62.3576 60.3789 62.9635C60.6459 63.566 61.0714 64.1026 61.6197 64.5285C62.1679 64.9545 62.823 65.2572 63.5299 65.4114C63.579 65.4221 63.6288 65.4327 63.6793 65.443C64.5582 65.6189 65.4758 65.5617 66.3185 65.2785C67.1613 64.9953 67.8923 64.4986 68.4211 63.8497C70.5588 61.2459 74.4335 56.4199 76.3655 53.3531C76.8182 52.6489 77.024 51.8404 76.9565 51.0314C76.889 50.2225 76.5512 49.4499 75.9865 48.8129C75.7586 48.5573 75.514 48.3138 75.254 48.0837C74.4019 47.3311 73.2494 46.9096 72.0487 46.9116Z" fill="#2F2E41"/>
<path d="M62.8697 41.0232C61.8046 41.0311 60.7703 41.3422 59.9182 41.9109C59.0662 42.4796 58.4412 43.2761 58.1347 44.1837C56.7177 48.3886 53.7373 52.8345 52.0869 55.1104C51.8132 55.4893 51.6286 55.9137 51.5442 56.3578C51.4599 56.802 51.4775 57.2568 51.5961 57.6947C51.7073 58.1148 51.9142 58.5101 52.2042 58.8561C52.4942 59.2021 52.861 59.4914 53.2819 59.706C53.3405 59.7361 53.3997 59.7649 53.4595 59.7924C55.7 60.8286 58.513 60.1005 59.8639 58.1346L67.0244 47.7135C67.4345 47.1218 67.6814 46.4523 67.745 45.7595C67.8085 45.0667 67.6869 44.3703 67.3901 43.7274C67.1127 43.1036 66.6734 42.5472 66.1081 42.1034C65.5428 41.6596 64.8674 41.3412 64.1373 41.1741C64.0409 41.152 63.9444 41.1319 63.8477 41.1138C63.5261 41.0536 63.1984 41.0232 62.8697 41.0232Z" fill="#2F2E41"/>
<path d="M46.7032 39.8241C47.3557 39.8809 48.0926 39.9208 48.8695 39.9629C51.6351 40.1128 54.7439 40.2813 55.6593 41.3262L55.8402 40.9105C56.0834 40.286 56.1571 39.6192 56.0554 38.9644C55.9537 38.3097 55.6794 37.6857 55.2549 37.1433C54.8527 36.6143 54.3155 36.1776 53.6873 35.8688C53.059 35.5599 52.3575 35.3878 51.6402 35.3663C51.5455 35.3634 51.4511 35.3625 51.3573 35.3633C48.9564 35.3859 46.9361 37.0993 46.7577 39.2641C46.7428 39.4446 46.7249 39.629 46.7032 39.8241Z" fill="#2F2E41"/>
<path d="M52.3273 51.4507C52.2742 51.4511 52.2223 51.4649 52.1776 51.4905C50.0604 52.6563 46.5899 52.9054 44.7096 52.95C44.6303 52.9518 44.5533 52.9737 44.4875 53.013C44.4217 53.0524 44.3699 53.1077 44.3381 53.1723C44.3058 53.2344 44.2943 53.3034 44.3051 53.3711C44.3159 53.4388 44.3486 53.5022 44.3991 53.5537C45.2174 54.4033 47.1307 55.4068 48.9162 55.6158C50.4059 55.7877 51.8537 53.3016 52.584 51.8026C52.6093 51.7539 52.6158 51.6991 52.6026 51.6468C52.5893 51.5945 52.5571 51.5475 52.5108 51.5131C52.4599 51.4735 52.3949 51.4514 52.3273 51.4507Z" fill="#2F2E41"/>
</g>
<defs>
<clipPath id="clip0">
<rect width="114" height="111" fill="white"/>
</clipPath>
</defs>
</svg>
