<svg width="114" height="111" viewBox="0 0 114 111" fill="none" xmlns="http://www.w3.org/2000/svg">
<g clip-path="url(#clip0)">
<path d="M8.56038 101.864C9.21727 102.126 9.92257 102.191 10.6083 102.054C11.2941 101.917 11.9371 101.582 12.4756 101.081C13.8469 99.775 14.2769 97.6239 14.6267 95.6317L15.6614 89.7388L13.4951 91.4313C11.9371 92.6485 10.3441 93.9048 9.26552 95.6677C8.18689 97.4307 7.71632 99.8375 8.58271 101.745" fill="#E6E6E6"/>
<path d="M8.89487 109.408C8.62221 107.154 8.34168 104.871 8.53339 102.593C8.70329 100.57 9.24732 98.5939 10.3549 96.9732C10.9427 96.1147 11.6581 95.3791 12.4687 94.7996C12.6801 94.6483 12.8746 95.0283 12.6642 95.179C11.2615 96.1848 10.1766 97.6701 9.5658 99.4207C8.89126 101.367 8.78295 103.49 8.89913 105.558C8.96937 106.808 9.11861 108.05 9.26849 109.291C9.28033 109.347 9.27294 109.407 9.24782 109.457C9.22271 109.507 9.18174 109.544 9.1332 109.562C9.08368 109.577 9.0309 109.569 8.98631 109.54C8.94172 109.512 8.90891 109.464 8.89501 109.408L8.89487 109.408Z" fill="#F2F2F2"/>
<path d="M10.8575 105.792C11.1392 106.278 11.5265 106.673 11.982 106.94C12.4375 107.207 12.9458 107.336 13.4581 107.315C14.775 107.244 15.8723 106.202 16.86 105.212L19.7822 102.284L17.8483 102.179C16.4575 102.104 15.0308 102.033 13.7061 102.52C12.3814 103.007 11.1598 104.178 10.9176 105.734" fill="#E6E6E6"/>
<path d="M8.12411 110.704C9.43679 108.069 10.9593 105.14 13.6799 104.203C14.4363 103.944 15.2295 103.851 16.0166 103.93C16.2648 103.954 16.2028 104.388 15.9552 104.364C14.6357 104.239 13.3187 104.635 12.226 105.483C11.1745 106.295 10.3557 107.424 9.66285 108.622C9.23837 109.355 8.85817 110.12 8.47797 110.883C8.35648 111.127 8.0012 110.951 8.12411 110.704Z" fill="#F2F2F2"/>
<path d="M113.159 78.1693H40.7885C40.5655 78.169 40.3518 78.0683 40.1941 77.8894C40.0364 77.7105 39.9477 77.4679 39.9474 77.2149V0.954447C39.9477 0.701414 40.0364 0.458838 40.1941 0.279916C40.3518 0.100995 40.5655 0.000330778 40.7885 0H113.159C113.382 0.000330778 113.596 0.100995 113.753 0.279916C113.911 0.458838 114 0.701414 114 0.954447V77.2147C114 77.4677 113.911 77.7103 113.753 77.8893C113.596 78.0682 113.382 78.1688 113.159 78.1691V78.1693Z" fill="white"/>
<path d="M113.159 78.1693H40.7885C40.5655 78.169 40.3518 78.0683 40.1941 77.8894C40.0364 77.7105 39.9477 77.4679 39.9474 77.2149V0.954447C39.9477 0.701414 40.0364 0.458838 40.1941 0.279916C40.3518 0.100995 40.5655 0.000330778 40.7885 0H113.159C113.382 0.000330778 113.596 0.100995 113.753 0.279916C113.911 0.458838 114 0.701414 114 0.954447V77.2147C114 77.4677 113.911 77.7103 113.753 77.8893C113.596 78.0682 113.382 78.1688 113.159 78.1691V78.1693ZM40.7885 0.381027C40.6549 0.381356 40.5268 0.441745 40.4323 0.548975C40.3378 0.656206 40.2846 0.801548 40.2843 0.953194V77.2147C40.2846 77.3663 40.3378 77.5117 40.4323 77.6189C40.5268 77.7261 40.6549 77.7865 40.7885 77.7868H113.159C113.293 77.7866 113.421 77.7262 113.515 77.6189C113.61 77.5117 113.663 77.3663 113.663 77.2147V0.954447C113.663 0.8028 113.61 0.657458 113.515 0.550228C113.421 0.442997 113.292 0.382608 113.159 0.382279L40.7885 0.381027Z" fill="#CACACA"/>
<path d="M74.9849 19.8164C74.8336 19.8167 74.6886 19.8851 74.5817 20.0066C74.4748 20.1281 74.4148 20.2927 74.4148 20.4644C74.4148 20.636 74.4748 20.8007 74.5817 20.9222C74.6886 21.0437 74.8336 21.1121 74.9849 21.1124H106.32C106.471 21.1121 106.616 21.0437 106.723 20.9222C106.83 20.8007 106.89 20.636 106.89 20.4644C106.89 20.2927 106.83 20.1281 106.723 20.0066C106.616 19.8851 106.471 19.8167 106.32 19.8164H74.9849Z" fill="#E4E4E4"/>
<path d="M74.9848 23.7048C74.8336 23.7052 74.6887 23.7737 74.5819 23.8952C74.4751 24.0166 74.4152 24.1812 74.4152 24.3528C74.4152 24.5244 74.4751 24.689 74.5819 24.8105C74.6887 24.9319 74.8336 25.0004 74.9848 25.0008H90.9822C91.1334 25.0004 91.2783 24.9319 91.3851 24.8105C91.4919 24.689 91.5518 24.5244 91.5518 24.3528C91.5518 24.1812 91.4919 24.0166 91.3851 23.8952C91.2783 23.7737 91.1334 23.7052 90.9822 23.7048H74.9848Z" fill="#E4E4E4"/>
<path d="M47.5968 44.6143C47.4456 44.6147 47.3007 44.6831 47.1939 44.8046C47.0871 44.9261 47.0271 45.0907 47.0271 45.2622C47.0271 45.4338 47.0871 45.5984 47.1939 45.7199C47.3007 45.8413 47.4456 45.9098 47.5968 45.9102H106.351C106.502 45.9098 106.647 45.8413 106.754 45.7199C106.86 45.5984 106.92 45.4338 106.92 45.2622C106.92 45.0907 106.86 44.9261 106.754 44.8046C106.647 44.6831 106.502 44.6147 106.351 44.6143H47.5968Z" fill="#E4E4E4"/>
<path d="M47.5968 48.5024C47.4456 48.5029 47.3007 48.5713 47.1939 48.6928C47.0871 48.8143 47.0271 48.9788 47.0271 49.1504C47.0271 49.322 47.0871 49.4866 47.1939 49.6081C47.3007 49.7295 47.4456 49.798 47.5968 49.7984H91.0126C91.1638 49.798 91.3087 49.7295 91.4155 49.6081C91.5223 49.4866 91.5823 49.322 91.5823 49.1504C91.5823 48.9788 91.5223 48.8143 91.4155 48.6928C91.3087 48.5713 91.1638 48.5029 91.0126 48.5024H47.5968Z" fill="#E4E4E4"/>
<path d="M47.5968 52.3027C47.4456 52.3031 47.3007 52.3716 47.1939 52.4931C47.0871 52.6145 47.0271 52.7791 47.0271 52.9507C47.0271 53.1223 47.0871 53.2869 47.1939 53.4083C47.3007 53.5298 47.4456 53.5983 47.5968 53.5987H106.351C106.502 53.5983 106.647 53.5298 106.754 53.4083C106.86 53.2869 106.92 53.1223 106.92 52.9507C106.92 52.7791 106.86 52.6145 106.754 52.4931C106.647 52.3716 106.502 52.3031 106.351 52.3027H47.5968Z" fill="#E4E4E4"/>
<path d="M47.5968 56.1909C47.4456 56.1913 47.3007 56.2598 47.1939 56.3813C47.0871 56.5027 47.0271 56.6673 47.0271 56.8389C47.0271 57.0105 47.0871 57.1751 47.1939 57.2965C47.3007 57.418 47.4456 57.4865 47.5968 57.4869H91.0126C91.1638 57.4865 91.3087 57.418 91.4155 57.2965C91.5223 57.1751 91.5823 57.0105 91.5823 56.8389C91.5823 56.6673 91.5223 56.5027 91.4155 56.3813C91.3087 56.2598 91.1638 56.1913 91.0126 56.1909H47.5968Z" fill="#E4E4E4"/>
<path d="M47.5968 60.0925C47.4456 60.0929 47.3007 60.1614 47.1939 60.2829C47.0871 60.4043 47.0271 60.5689 47.0271 60.7405C47.0271 60.9121 47.0871 61.0767 47.1939 61.1981C47.3007 61.3196 47.4456 61.3881 47.5968 61.3885H106.351C106.502 61.3881 106.647 61.3196 106.754 61.1981C106.86 61.0767 106.92 60.9121 106.92 60.7405C106.92 60.5689 106.86 60.4043 106.754 60.2829C106.647 60.1614 106.502 60.0929 106.351 60.0925H47.5968Z" fill="#E4E4E4"/>
<path d="M47.5968 63.9807C47.4456 63.9811 47.3007 64.0496 47.1939 64.1711C47.0871 64.2925 47.0271 64.4571 47.0271 64.6287C47.0271 64.8003 47.0871 64.9648 47.1939 65.0863C47.3007 65.2078 47.4456 65.2762 47.5968 65.2767H91.0126C91.1638 65.2762 91.3087 65.2078 91.4155 65.0863C91.5223 64.9648 91.5823 64.8003 91.5823 64.6287C91.5823 64.4571 91.5223 64.2925 91.4155 64.1711C91.3087 64.0496 91.1638 63.9811 91.0126 63.9807H47.5968Z" fill="#E4E4E4"/>
<path d="M56.9028 31.7182C55.2801 31.7182 53.6938 31.1722 52.3445 30.1493C50.9953 29.1263 49.9437 27.6724 49.3227 25.9713C48.7017 24.2701 48.5392 22.3983 48.8558 20.5924C49.1723 18.7865 49.9537 17.1276 51.1012 15.8256C52.2486 14.5237 53.7105 13.637 55.302 13.2778C56.8936 12.9185 58.5433 13.1029 60.0425 13.8075C61.5416 14.5122 62.823 15.7054 63.7246 17.2364C64.6261 18.7673 65.1073 20.5673 65.1073 22.4085C65.1048 24.8767 64.2396 27.243 62.7015 28.9883C61.1634 30.7336 59.078 31.7154 56.9028 31.7182Z" fill="#03A5EC"/>
<path d="M31.9975 66.9187C31.9834 66.5789 31.9037 66.2468 31.7641 65.9457C31.6246 65.6446 31.4285 65.3819 31.1898 65.1761C30.9511 64.9703 30.6755 64.8264 30.3825 64.7545C30.0895 64.6826 29.7861 64.6844 29.4938 64.76L26.7819 60.4233L24.0574 61.6506L27.963 67.7137C28.1073 68.2625 28.4241 68.7322 28.8533 69.0337C29.2824 69.3352 29.7941 69.4476 30.2914 69.3496C30.7888 69.2516 31.2371 68.95 31.5516 68.502C31.866 68.054 32.0247 67.4906 31.9975 66.9187H31.9975Z" fill="#A0616A"/>
<path d="M26.712 66.5972L18.5061 54.5179L21.5808 43.5532C21.8061 40.7965 23.3263 40.0268 23.391 39.9953L23.4897 39.9473L26.1652 48.0432L24.2008 53.9874L29.0225 63.1891L26.712 66.5972Z" fill="#3F3D56"/>
<path d="M55.2097 29.3607C54.9123 29.403 54.6266 29.5188 54.3728 29.7C54.1191 29.8811 53.9034 30.1232 53.741 30.4092C53.5786 30.6951 53.4735 31.018 53.433 31.3551C53.3924 31.6922 53.4175 32.0352 53.5065 32.3601L49.9058 35.7633L51.1947 38.7507L56.2202 33.8635C56.6913 33.6578 57.0795 33.2631 57.3112 32.7543C57.5429 32.2455 57.6021 31.6579 57.4776 31.1028C57.353 30.5478 57.0534 30.0639 56.6354 29.7428C56.2174 29.4217 55.7102 29.2858 55.2097 29.3607Z" fill="#A0616A"/>
<path d="M55.336 35.365L45.3568 45.5822L35.4848 42.9516C33.0452 42.9099 32.2513 41.2495 32.2187 41.1788L32.1688 41.0708L39.0756 37.4181L44.4503 39.1809L52.1627 33.0146L55.336 35.365Z" fill="#3F3D56"/>
<path d="M38.0506 107.999L40.7318 107.999L42.0072 96.2642L38.05 96.2644L38.0506 107.999Z" fill="#A0616A"/>
<path d="M45.9027 110.824L37.4761 110.824L37.4759 107.13L43.5384 107.13C44.1654 107.13 44.7668 107.412 45.2102 107.915C45.6535 108.418 45.9026 109.101 45.9027 109.812L45.9027 110.824L45.9027 110.824Z" fill="#2F2E41"/>
<path d="M27.3342 107.999L30.0154 107.999L31.291 96.2642L27.3339 96.2644L27.3342 107.999Z" fill="#A0616A"/>
<path d="M35.1864 110.824L26.7598 110.824L26.7596 107.13L32.8221 107.13C33.1326 107.13 33.44 107.199 33.7269 107.334C34.0137 107.469 34.2743 107.666 34.4939 107.915C34.7134 108.164 34.8875 108.46 35.0064 108.785C35.1252 109.111 35.1863 109.46 35.1864 109.812L35.1864 110.824Z" fill="#2F2E41"/>
<path d="M26.3806 65.166L26.5993 82.5369L26.8181 105.367L31.6294 104.871L34.0352 73.3553L37.097 104.871H42.0641L42.5644 73.1072L40.8148 66.1587L26.3806 65.166Z" fill="#2F2E41"/>
<path d="M35.7977 67.4987C30.5626 67.4991 25.7438 64.8106 25.6787 64.7737L25.6247 64.743L25.1854 52.7799C25.058 52.3571 22.5494 44.0153 22.1245 41.3639C21.6941 38.6776 27.9328 36.3201 28.6904 36.0444L28.8623 33.8834L35.8536 33.0286L36.7397 35.7936L39.2478 36.8608C39.5322 36.9819 39.7675 37.2171 39.9092 37.5219C40.0509 37.8267 40.0892 38.1799 40.0167 38.5146L38.6227 44.947L42.0273 66.2286L41.2944 66.2646C39.5374 67.165 37.6412 67.4986 35.7977 67.4987Z" fill="#3F3D56"/>
<path d="M35.0461 30.9598C37.4855 29.4468 38.382 25.9763 37.0485 23.2084C35.715 20.4405 32.6565 19.4233 30.2171 20.9363C27.7778 22.4494 26.8813 25.9199 28.2148 28.6878C29.5483 31.4557 32.6068 32.4729 35.0461 30.9598Z" fill="#A0616A"/>
<path d="M28.5546 31.4776C29.5139 32.6371 31.2955 32.0147 31.4205 30.4306C31.4303 30.3076 31.4296 30.1839 31.4184 30.061C31.3538 29.3594 30.9966 28.7223 31.0821 27.9815C31.1015 27.7971 31.162 27.6214 31.258 27.471C32.0225 26.3094 33.8169 27.9905 34.5384 26.939C34.9808 26.2942 34.4608 25.2791 34.8003 24.5585C35.2483 23.6074 36.5754 24.0765 37.4077 23.5557C38.3336 22.9761 38.2783 21.3641 37.6687 20.3835C36.9254 19.1877 35.622 18.5496 34.3349 18.4577C33.0478 18.3657 31.7696 18.7605 30.5679 19.2919C29.2026 19.8956 27.8488 20.73 27.0086 22.0922C25.9868 23.7488 25.8885 25.9759 26.3995 27.913C26.7103 29.0913 27.7712 30.5307 28.5546 31.4776Z" fill="#2F2E41"/>
<path d="M63.9623 110.971H0.167441C0.123033 110.971 0.0804407 110.951 0.0490395 110.915C0.0176383 110.88 0 110.831 0 110.781C0 110.73 0.0176383 110.682 0.0490395 110.646C0.0804407 110.611 0.123033 110.591 0.167441 110.591H63.9623C64.0067 110.591 64.0493 110.611 64.0807 110.646C64.1121 110.682 64.1297 110.73 64.1297 110.781C64.1297 110.831 64.1121 110.88 64.0807 110.915C64.0493 110.951 64.0067 110.971 63.9623 110.971Z" fill="#CACACA"/>
<path d="M56.4291 25.9248C56.2811 25.925 56.1386 25.8614 56.0303 25.747L53.325 22.8957C53.2113 22.7757 53.1442 22.6093 53.1386 22.4331C53.1329 22.257 53.1891 22.0856 53.2948 21.9564C53.4005 21.8273 53.5471 21.751 53.7023 21.7445C53.8575 21.7379 54.0087 21.8015 54.1226 21.9213L56.4141 24.3364L60.9478 19.1922C61.0022 19.13 61.0668 19.0807 61.138 19.0469C61.2092 19.0132 61.2856 18.9958 61.3627 18.9956C61.4399 18.9954 61.5163 19.0126 61.5876 19.046C61.6589 19.0794 61.7237 19.1285 61.7782 19.1904C61.8328 19.2523 61.876 19.3258 61.9055 19.4068C61.9349 19.4877 61.95 19.5744 61.9499 19.6619C61.9497 19.7495 61.9343 19.8361 61.9046 19.9169C61.8748 19.9977 61.8313 20.071 61.7765 20.1327L56.8436 25.73C56.7892 25.7919 56.7246 25.8409 56.6534 25.8743C56.5823 25.9077 56.5061 25.9249 56.4291 25.9248Z" fill="white"/>
</g>
<defs>
<clipPath id="clip0">
<rect width="114" height="111" fill="white"/>
</clipPath>
</defs>
</svg>
