<svg width="114" height="111" viewBox="0 0 114 111" fill="none" xmlns="http://www.w3.org/2000/svg">
<g clip-path="url(#clip0)">
<path d="M21.0293 18.8803L25.5987 14.5305C25.5987 14.5305 30.625 7.69498 34.2805 9.5592C37.936 11.4234 29.0257 15.7733 29.0257 15.7733L24.4563 22.6087L21.0293 18.8803Z" fill="#A0616A"/>
<path d="M6.63584 103.185C6.63584 103.185 3.20881 109.192 5.72197 109.606C8.23512 110.02 20.5724 110.641 20.8009 110.02C21.0294 109.399 22.8571 107.327 21.4863 106.499C20.1155 105.67 14.6322 105.049 14.6322 105.049L12.8045 103.392L6.63584 103.185Z" fill="#2F2E41"/>
<path d="M4.8081 44.5654C4.8081 44.5654 -2.50289 52.8508 3.43729 61.3433L4.8081 75.6357C4.8081 75.6357 2.29494 95.3136 5.4935 101.942L5.95044 104.22H13.9468L11.8906 86.821C11.8906 86.821 12.1191 84.7497 12.8045 84.3354C13.4899 83.9211 24.6849 61.5505 24.6849 61.5505C24.6849 61.5505 22.8571 58.4434 23.5425 57.822C24.2279 57.2006 22.8571 44.7725 22.1717 44.3582C21.4863 43.944 4.8081 44.5654 4.8081 44.5654Z" fill="#2F2E41"/>
<path d="M17.8308 101.32L18.7447 106.085L9.83447 105.67L10.9768 100.492L17.8308 101.32Z" fill="#A0616A"/>
<path d="M16.2315 16.8092C20.0169 16.8092 23.0856 14.0271 23.0856 10.5952C23.0856 7.16324 20.0169 4.3811 16.2315 4.3811C12.4461 4.3811 9.37744 7.16324 9.37744 10.5952C9.37744 14.0271 12.4461 16.8092 16.2315 16.8092Z" fill="#A0616A"/>
<path d="M10.0628 11.6309L9.37744 19.0877L16.6884 22.1948C16.6884 22.1948 15.4319 15.2557 16.3457 13.3915L10.0628 11.6309Z" fill="#A0616A"/>
<path d="M17.6024 21.7804L16.917 19.2948L7.54974 16.1877C7.54974 16.1877 6.63586 16.1877 6.86433 17.6377C7.0928 19.0876 7.0928 18.8805 7.0928 18.8805C7.0928 18.8805 3.89423 20.1233 3.66577 22.1947C3.43731 24.266 -0.218195 24.8874 0.0102736 27.9945C0.238742 31.1015 1.38108 32.7586 1.38108 32.7586C1.38108 32.7586 0.238741 35.2442 2.06649 36.6941C2.06649 36.6941 3.89424 39.594 2.98036 41.6654C2.06649 43.7367 0.924155 47.258 3.4373 46.6366C5.95045 46.0152 23.3141 44.9796 23.3141 44.9796C23.3141 44.9796 25.8272 36.487 23.0856 33.38C23.0856 33.38 23.0856 31.5158 21.0294 27.7873C18.9732 24.0589 17.6024 21.7804 17.6024 21.7804Z" fill="#03A5EC"/>
<path d="M5.49341 45.1866C5.49341 45.1866 8.4635 56.5791 12.119 57.8219C12.119 57.8219 12.8044 66.1073 16.6884 65.693C20.5723 65.2788 16.6884 57.8219 16.6884 57.8219L12.3475 43.5295L5.49341 45.1866Z" fill="#A0616A"/>
<path d="M17.1453 22.4019C17.1453 22.4019 20.5723 17.4306 21.4862 18.2592C22.4 19.0877 26.9694 21.5733 26.7409 23.2304C26.5125 24.8875 24.4563 24.8875 24.4563 24.8875L19.6584 28.2017L17.1453 22.4019Z" fill="#03A5EC"/>
<path d="M21.9433 59.479L24.685 61.2658L26.5127 78.9498C26.5127 78.9498 19.8871 102.977 18.0594 103.185C16.2316 103.392 8.69214 103.392 8.92061 102.77C9.14908 102.149 10.2914 99.6633 10.2914 99.0419C10.2914 98.4205 12.6742 93.451 12.6742 93.451L15.7747 81.8497L15.0893 72.7357L21.9433 59.479Z" fill="#2F2E41"/>
<path d="M18.5161 104.427C18.5161 104.427 8.92045 101.735 8.46351 102.356C8.00658 102.977 4.95874 109.24 9.22428 109.941C13.4898 110.641 28.7972 111.884 28.7972 110.02C28.7972 108.156 28.3403 106.913 26.9695 106.913C25.5987 106.913 19.43 104.22 18.9731 103.599C18.5161 102.977 18.5161 104.427 18.5161 104.427Z" fill="#2F2E41"/>
<path d="M9.73237 11.0036C9.44702 10.4712 10.0796 9.89175 10.6477 10.1835L10.6597 10.1898C10.8588 10.2994 11.0179 10.4599 11.117 10.651C11.2162 10.8421 11.251 11.0555 11.2172 11.2645C12.0411 10.5192 11.4339 9.02453 12.3241 8.34478C12.7361 8.03014 13.405 7.96092 13.6167 7.51179C13.7399 7.25032 13.6561 6.9404 13.7647 6.67367C13.926 6.27759 14.4413 6.1122 14.9019 6.04992C16.3504 5.85409 17.8153 6.18733 19.2336 6.51798C19.7552 6.63956 20.3036 6.77467 20.6835 7.1207C21.0836 7.48516 21.2228 8.01474 21.4681 8.47836C21.7135 8.94199 23.3226 8.90009 23.8851 8.83448C24.0807 8.33084 22.6364 8.29287 22.5185 7.76973C22.1962 6.33987 23.3185 4.81939 22.7679 3.44799C22.4362 2.62163 21.5695 2.07461 20.697 1.6904C18.2732 0.634022 15.5064 0.419961 12.9202 1.08874C12.657 1.14142 12.411 1.24926 12.2019 1.4036C11.8699 1.68464 11.8083 2.13586 11.5872 2.4956C11.0834 3.31525 9.88843 3.51005 9.08268 4.09897C7.86237 4.9909 7.7248 6.6014 7.68528 8.02206C7.66538 8.73751 7.65134 9.48092 7.97456 10.1339C8.29778 10.7868 9.06373 11.3188 9.83856 11.1821C9.80189 11.128 9.7667 11.0676 9.73237 11.0036Z" fill="#2F2E41"/>
<path d="M10.9245 24.4204C10.04 23.864 8.97709 23.589 7.90193 23.6385C6.82678 23.688 5.80005 24.0593 4.98241 24.6942C3.40782 25.9073 1.71394 27.6454 1.83797 29.4446C2.06644 32.7588 3.43725 46.4297 5.265 46.6368C7.09275 46.844 13.7183 45.1869 13.7183 44.1512C13.7183 43.1155 12.1191 41.8727 12.1191 41.8727L14.0609 31.3097C14.5407 28.6995 13.3958 26.0326 11.027 24.4865C10.993 24.4644 10.9589 24.4424 10.9245 24.4204Z" fill="#03A5EC"/>
<g opacity="0.5">
<path opacity="0.5" d="M47.3529 25.6615C53.85 25.6615 59.1169 20.8863 59.1169 14.9959C59.1169 9.10546 53.85 4.33032 47.3529 4.33032C40.8558 4.33032 35.5889 9.10546 35.5889 14.9959C35.5889 20.8863 40.8558 25.6615 47.3529 25.6615Z" fill="url(#paint0_linear)"/>
</g>
<path d="M47.3759 25.3688C53.736 25.3688 58.8919 20.6943 58.8919 14.928C58.8919 9.16178 53.736 4.4873 47.3759 4.4873C41.0158 4.4873 35.8599 9.16178 35.8599 14.928C35.8599 20.6943 41.0158 25.3688 47.3759 25.3688Z" fill="#F5F5F5"/>
<path d="M53.7112 15.9569C53.7112 19.4299 50.9588 21.139 47.3852 21.139C43.8117 21.139 40.7703 19.4299 40.7703 15.9569C40.7703 12.4839 43.6672 9.66846 47.2407 9.66846C50.8143 9.66846 53.7112 12.4839 53.7112 15.9569Z" fill="#333333"/>
<path d="M47.3851 25.4098C49.6353 25.4131 51.8368 24.8158 53.7151 23.6924C53.2908 21.5899 51.676 21.47 51.676 21.47H42.7718C42.7718 21.47 41.248 21.5834 40.772 23.5175C42.708 24.7522 45.0181 25.4132 47.3851 25.4098Z" fill="#03A5EC"/>
<path opacity="0.1" d="M45.4705 18.9055H49.0321V21.5788C49.0321 21.9832 48.855 22.3709 48.5396 22.6568C48.2243 22.9427 47.7966 23.1033 47.3506 23.1033H47.152C46.706 23.1033 46.2783 22.9427 45.963 22.6568C45.6476 22.3709 45.4705 21.9832 45.4705 21.5788V18.9055H45.4705Z" fill="black"/>
<path d="M45.7913 18.7859H48.7113C48.7964 18.7859 48.878 18.8165 48.9382 18.8711C48.9983 18.9256 49.0321 18.9996 49.0321 19.0767V21.4592C49.0321 21.8635 48.855 22.2513 48.5396 22.5372C48.2243 22.8231 47.7966 22.9837 47.3506 22.9837H47.152C46.706 22.9837 46.2783 22.8231 45.963 22.5372C45.6476 22.2513 45.4705 21.8635 45.4705 21.4592V19.0767C45.4705 18.9996 45.5043 18.9256 45.5644 18.8711C45.6246 18.8165 45.7062 18.7859 45.7913 18.7859V18.7859Z" fill="#FDA57D"/>
<path opacity="0.1" d="M45.4771 20.1246C46.6249 20.5134 47.8885 20.5166 49.0387 20.1335V19.7368H45.4771V20.1246Z" fill="black"/>
<path d="M47.2642 20.341C50.0837 20.341 52.3693 18.2688 52.3693 15.7126C52.3693 13.1564 50.0837 11.0842 47.2642 11.0842C44.4448 11.0842 42.1592 13.1564 42.1592 15.7126C42.1592 18.2688 44.4448 20.341 47.2642 20.341Z" fill="#FDA57D"/>
<path opacity="0.1" d="M41.3804 16.0152C41.3804 16.0152 44.5594 15.6658 46.9678 12.8709C46.9678 12.8709 50.1468 16.0443 52.3625 15.6949C52.3625 15.6949 53.647 14.4722 52.3625 13.2494C51.078 12.0267 50.0826 10.4837 48.3807 10.6875C46.6788 10.8912 44.5915 10.9786 43.6924 11.7064C42.7933 12.4342 41.3804 16.0152 41.3804 16.0152Z" fill="black"/>
<path d="M41.3804 15.9568C41.3804 15.9568 44.5594 15.6074 46.9678 12.8126C46.9678 12.8126 50.1468 15.9859 52.3625 15.6366C52.3625 15.6366 53.647 14.4138 52.3625 13.1911C51.078 11.9683 50.0826 10.4253 48.3807 10.6291C46.6788 10.8329 44.5915 10.9202 43.6924 11.6481C42.7933 12.3759 41.3804 15.9568 41.3804 15.9568Z" fill="#333333"/>
<path d="M42.1575 16.5152C42.4198 16.5152 42.6324 16.1538 42.6324 15.7079C42.6324 15.2621 42.4198 14.9006 42.1575 14.9006C41.8952 14.9006 41.6826 15.2621 41.6826 15.7079C41.6826 16.1538 41.8952 16.5152 42.1575 16.5152Z" fill="#FDA57D"/>
<path d="M52.3689 16.5152C52.6312 16.5152 52.8438 16.1538 52.8438 15.7079C52.8438 15.2621 52.6312 14.9006 52.3689 14.9006C52.1067 14.9006 51.894 15.2621 51.894 15.7079C51.894 16.1538 52.1067 16.5152 52.3689 16.5152Z" fill="#FDA57D"/>
<g opacity="0.5">
<path opacity="0.5" d="M97.174 26.4225C103.671 26.4225 108.938 21.6473 108.938 15.7569C108.938 9.86645 103.671 5.09131 97.174 5.09131C90.6769 5.09131 85.4099 9.86645 85.4099 15.7569C85.4099 21.6473 90.6769 26.4225 97.174 26.4225Z" fill="url(#paint1_linear)"/>
</g>
<path d="M97.1969 26.1295C103.557 26.1295 108.713 21.4551 108.713 15.6888C108.713 9.92253 103.557 5.24805 97.1969 5.24805C90.8368 5.24805 85.6809 9.92253 85.6809 15.6888C85.6809 21.4551 90.8368 26.1295 97.1969 26.1295Z" fill="#F5F5F5"/>
<path d="M97.2061 26.1708C99.4563 26.1741 101.658 25.5768 103.536 24.4534C103.112 22.3508 101.497 22.231 101.497 22.231H92.5929C92.5929 22.231 91.069 22.3444 90.593 24.2785C92.529 25.5132 94.8391 26.1742 97.2061 26.1708Z" fill="#03A5EC"/>
<path d="M97.0854 20.5082C100.155 20.5082 102.644 18.252 102.644 15.4687C102.644 12.6855 100.155 10.4292 97.0854 10.4292C94.0155 10.4292 91.5269 12.6855 91.5269 15.4687C91.5269 18.252 94.0155 20.5082 97.0854 20.5082Z" fill="#72351C"/>
<path opacity="0.1" d="M95.2915 19.666H98.8532V22.3393C98.8532 22.7437 98.676 23.1314 98.3607 23.4173C98.0453 23.7032 97.6176 23.8638 97.1716 23.8638H96.973C96.5271 23.8638 96.0994 23.7032 95.784 23.4173C95.4687 23.1314 95.2915 22.7437 95.2915 22.3393V19.666Z" fill="black"/>
<path d="M95.6123 19.5466H98.5324C98.6175 19.5466 98.6991 19.5773 98.7592 19.6318C98.8194 19.6864 98.8532 19.7603 98.8532 19.8375V22.2199C98.8532 22.6243 98.676 23.012 98.3607 23.2979C98.0453 23.5838 97.6176 23.7444 97.1716 23.7444H96.973C96.5271 23.7444 96.0994 23.5838 95.784 23.2979C95.4687 23.012 95.2915 22.6243 95.2915 22.2199V19.8375C95.2915 19.7603 95.3253 19.6864 95.3855 19.6318C95.4456 19.5773 95.5272 19.5466 95.6123 19.5466Z" fill="#FDA57D"/>
<path opacity="0.1" d="M95.2981 20.8853C96.446 21.2741 97.7095 21.2773 98.8598 20.8942V20.4976H95.2981V20.8853Z" fill="black"/>
<path d="M97.0855 21.1015C99.905 21.1015 102.191 19.0293 102.191 16.4731C102.191 13.9169 99.905 11.8447 97.0855 11.8447C94.2661 11.8447 91.9805 13.9169 91.9805 16.4731C91.9805 19.0293 94.2661 21.1015 97.0855 21.1015Z" fill="#FDA57D"/>
<path opacity="0.1" d="M93.4492 12.2632C93.4492 12.2632 95.6007 16.2226 101.67 13.9226L100.257 11.9138L97.7522 11.0986L93.4492 12.2632Z" fill="black"/>
<path d="M93.4492 12.205C93.4492 12.205 95.6007 16.1644 101.67 13.8645L100.257 11.8557L97.7522 11.0405L93.4492 12.205Z" fill="#72351C"/>
<path d="M93.43 11.9376C93.5751 11.5305 93.8257 11.1608 94.161 10.8597C95.1653 9.95976 96.8113 9.76977 97.6557 8.74365C97.7017 8.81625 97.7304 8.89678 97.7399 8.98004C97.7494 9.0633 97.7396 9.14745 97.7111 9.22707C97.6826 9.30668 97.636 9.38 97.5743 9.44228C97.5126 9.50457 97.4372 9.55446 97.353 9.58872C98.1609 9.58397 99.0996 9.51977 99.5568 8.91586C99.6698 9.15447 99.7059 9.41727 99.6607 9.67371C99.6155 9.93015 99.491 10.1697 99.3016 10.3645C100.019 10.394 100.784 10.8352 100.83 11.4846C100.861 11.9172 100.562 12.3269 100.17 12.575C99.7621 12.8043 99.3091 12.959 98.836 13.0303C97.4729 13.3028 92.5405 14.4449 93.43 11.9376Z" fill="#72351C"/>
<path d="M102.19 16.5137H102.055L99.422 18.6389C96.8852 17.5617 95.0227 18.6389 95.0227 18.6389L92.2611 16.601L91.9827 16.6327C92.0204 17.8475 92.5836 19 93.5507 19.8415C94.5177 20.683 95.811 21.1459 97.1512 21.1303C98.4915 21.1146 99.7712 20.6217 100.714 19.758C101.657 18.8942 102.187 17.7289 102.19 16.5137V16.5137ZM97.0778 19.4541C96.0847 19.4541 95.2796 19.2716 95.2796 19.0465C95.2796 18.8214 96.0847 18.6389 97.0778 18.6389C98.071 18.6389 98.8761 18.8214 98.8761 19.0465C98.8761 19.2716 98.071 19.4541 97.0778 19.4541Z" fill="#72351C"/>
<path d="M91.9783 17.2762C92.2406 17.2762 92.4532 16.9147 92.4532 16.4689C92.4532 16.023 92.2406 15.6616 91.9783 15.6616C91.716 15.6616 91.5034 16.023 91.5034 16.4689C91.5034 16.9147 91.716 17.2762 91.9783 17.2762Z" fill="#FDA57D"/>
<path d="M102.19 17.2762C102.452 17.2762 102.665 16.9147 102.665 16.4689C102.665 16.023 102.452 15.6616 102.19 15.6616C101.927 15.6616 101.715 16.023 101.715 16.4689C101.715 16.9147 101.927 17.2762 102.19 17.2762Z" fill="#FDA57D"/>
<g opacity="0.5">
<path opacity="0.5" d="M72.265 43.9205C78.7621 43.9205 84.0291 39.1454 84.0291 33.2549C84.0291 27.3645 78.7621 22.5894 72.265 22.5894C65.7679 22.5894 60.501 27.3645 60.501 33.2549C60.501 39.1454 65.7679 43.9205 72.265 43.9205Z" fill="url(#paint2_linear)"/>
</g>
<path d="M72.2651 43.6376C78.6252 43.6376 83.7811 38.9631 83.7811 33.1968C83.7811 27.4306 78.6252 22.7561 72.2651 22.7561C65.9049 22.7561 60.749 27.4306 60.749 33.1968C60.749 38.9631 65.9049 43.6376 72.2651 43.6376Z" fill="#F5F5F5"/>
<path d="M67.7705 33.2898C67.7705 33.2898 66.4645 39.1214 65.7522 38.7985C65.7522 38.7985 72.6249 44.1804 78.6929 38.7985C78.6929 38.7985 77.6244 34.6891 76.081 33.2898H67.7705Z" fill="#333333"/>
<path d="M72.2969 43.6688C74.5472 43.6721 76.7487 43.0748 78.6271 41.9514C78.2027 39.8489 76.5879 39.729 76.5879 39.729H67.6837C67.6837 39.729 66.1598 39.8424 65.6838 41.7766C67.6199 43.0112 69.93 43.6722 72.2969 43.6688Z" fill="#03A5EC"/>
<path d="M72.1764 37.5951C74.9958 37.5951 77.2814 35.5229 77.2814 32.9668C77.2814 30.4106 74.9958 28.3384 72.1764 28.3384C69.3569 28.3384 67.0713 30.4106 67.0713 32.9668C67.0713 35.5229 69.3569 37.5951 72.1764 37.5951Z" fill="#333333"/>
<path opacity="0.1" d="M70.3823 37.1643H73.944V39.8376C73.944 40.2419 73.7668 40.6297 73.4515 40.9156C73.1361 41.2015 72.7084 41.3621 72.2625 41.3621H72.0638C71.6179 41.3621 71.1902 41.2015 70.8748 40.9156C70.5595 40.6297 70.3823 40.2419 70.3823 39.8376V37.1643Z" fill="black"/>
<path d="M70.7031 37.0449H73.6232C73.7082 37.0449 73.7898 37.0756 73.85 37.1301C73.9102 37.1847 73.944 37.2586 73.944 37.3358V39.7182C73.944 40.1226 73.7668 40.5103 73.4515 40.7962C73.1361 41.0821 72.7084 41.2427 72.2625 41.2427H72.0638C71.6179 41.2427 71.1902 41.0821 70.8748 40.7962C70.5595 40.5103 70.3823 40.1226 70.3823 39.7182V37.3358C70.3823 37.2586 70.4161 37.1847 70.4763 37.1301C70.5364 37.0756 70.618 37.0449 70.7031 37.0449H70.7031Z" fill="#BE7C5E"/>
<path opacity="0.1" d="M70.3889 38.3836C71.5368 38.7724 72.8004 38.7756 73.9506 38.3925V37.9958H70.3889V38.3836Z" fill="black"/>
<path d="M72.1764 38.5998C74.9958 38.5998 77.2814 36.5276 77.2814 33.9714C77.2814 31.4152 74.9958 29.343 72.1764 29.343C69.3569 29.343 67.0713 31.4152 67.0713 33.9714C67.0713 36.5276 69.3569 38.5998 72.1764 38.5998Z" fill="#BE7C5E"/>
<path d="M67.2954 32.2134H77.0306C77.0306 32.2134 76.1995 28.6494 72.5192 28.8766C68.8388 29.1039 67.2954 32.2134 67.2954 32.2134Z" fill="#333333"/>
<path d="M67.1768 34.5813C67.4391 34.5813 67.6517 34.2199 67.6517 33.7741C67.6517 33.3282 67.4391 32.9668 67.1768 32.9668C66.9145 32.9668 66.7019 33.3282 66.7019 33.7741C66.7019 34.2199 66.9145 34.5813 67.1768 34.5813Z" fill="#BE7C5E"/>
<path d="M77.1495 34.5813C77.4117 34.5813 77.6244 34.2199 77.6244 33.7741C77.6244 33.3282 77.4117 32.9668 77.1495 32.9668C76.8872 32.9668 76.6746 33.3282 76.6746 33.7741C76.6746 34.2199 76.8872 34.5813 77.1495 34.5813Z" fill="#BE7C5E"/>
<path opacity="0.1" d="M67.2954 32.333H77.0306C77.0306 32.333 76.1995 28.769 72.5192 28.9963C68.8388 29.2235 67.2954 32.333 67.2954 32.333Z" fill="black"/>
<path d="M72.2649 23.5338C74.3856 23.5338 76.4587 24.1039 78.222 25.1721C79.9853 26.2403 81.3596 27.7585 82.1712 29.5348C82.9827 31.3112 83.1951 33.2658 82.7813 35.1515C82.3676 37.0373 81.3464 38.7694 79.8468 40.129C78.3473 41.4885 76.4367 42.4144 74.3568 42.7895C72.2768 43.1645 70.1209 42.972 68.1616 42.2363C66.2024 41.5005 64.5277 40.2545 63.3495 38.6558C62.1713 37.0572 61.5425 35.1777 61.5425 33.255C61.5425 31.9784 61.8198 30.7143 62.3587 29.5348C62.8975 28.3554 63.6874 27.2837 64.683 26.381C65.6787 25.4783 66.8607 24.7623 68.1616 24.2737C69.4625 23.7852 70.8568 23.5338 72.2649 23.5338ZM72.2649 21.1331C69.6205 21.1331 67.0355 21.844 64.8367 23.176C62.638 24.508 60.9243 26.4011 59.9123 28.6161C58.9003 30.8311 58.6355 33.2684 59.1514 35.6199C59.6673 37.9713 60.9408 40.1312 62.8106 41.8265C64.6805 43.5218 67.0629 44.6763 69.6565 45.144C72.2501 45.6117 74.9384 45.3717 77.3816 44.4542C79.8247 43.5367 81.9129 41.983 83.382 39.9896C84.8512 37.9961 85.6353 35.6525 85.6353 33.255C85.6313 30.0412 84.2214 26.96 81.7148 24.6875C79.2082 22.415 75.8098 21.1367 72.2649 21.1331Z" fill="#CCCCCC"/>
<path d="M73.4197 18.2993H70.2854V21.2905H73.4197V18.2993Z" fill="#CCCCCC"/>
<path d="M79.0093 19.511L77.3101 22.075L79.9966 23.5385L81.6959 20.9746L79.0093 19.511Z" fill="#CCCCCC"/>
<path d="M85.6854 24.4097L82.7998 25.8599L84.3193 28.3452L87.2049 26.895L85.6854 24.4097Z" fill="#CCCCCC"/>
<path d="M84.5066 38.0235L82.8457 40.4333L85.6436 42.0184L87.3045 39.6086L84.5066 38.0235Z" fill="#CCCCCC"/>
<path d="M58.8445 24.4097L57.325 26.895L60.2105 28.3452L61.73 25.8598L58.8445 24.4097Z" fill="#CCCCCC"/>
<path d="M60.0235 38.0233L57.2256 39.6084L58.8865 42.0182L61.6844 40.4331L60.0235 38.0233Z" fill="#CCCCCC"/>
<path d="M65.5206 19.5111L62.834 20.9746L64.5332 23.5385L67.2198 22.075L65.5206 19.5111Z" fill="#CCCCCC"/>
<path d="M73.4197 45.2197H70.2854V48.2109H73.4197V45.2197Z" fill="#CCCCCC"/>
<path d="M79.9966 42.9715L77.3101 44.4351L79.0093 46.999L81.6959 45.5354L79.9966 42.9715Z" fill="#CCCCCC"/>
<path d="M64.5332 42.9715L62.834 45.5354L65.5206 46.9989L67.2198 44.435L64.5332 42.9715Z" fill="#CCCCCC"/>
<path d="M59.2331 32.0586H55.439V34.6011H59.2331V32.0586Z" fill="#CCCCCC"/>
<path d="M85.297 34.6011H89.0911V32.0586H85.297V34.6011Z" fill="#CCCCCC"/>
<path d="M97.1739 6.03547C99.2946 6.03546 101.368 6.6056 103.131 7.67379C104.894 8.74197 106.269 10.2602 107.08 12.0365C107.892 13.8129 108.104 15.7675 107.69 17.6532C107.277 19.539 106.255 21.2711 104.756 22.6307C103.256 23.9902 101.346 24.9161 99.2657 25.2912C97.1858 25.6663 95.0298 25.4737 93.0706 24.738C91.1113 24.0022 89.4367 22.7562 88.2585 21.1575C87.0803 19.5589 86.4514 17.6794 86.4514 15.7567C86.4514 13.1785 87.5811 10.7058 89.592 8.88276C91.6028 7.05967 94.3301 6.03547 97.1739 6.03547ZM97.1739 3.63477C94.5294 3.63477 91.9444 4.34571 89.7457 5.67768C87.5469 7.00966 85.8332 8.90285 84.8212 11.1178C83.8093 13.3328 83.5445 15.7702 84.0604 18.1216C84.5763 20.473 85.8497 22.6329 87.7196 24.3282C89.5895 26.0235 91.9718 27.178 94.5654 27.6457C97.159 28.1135 99.8474 27.8734 102.29 26.9559C104.734 26.0384 106.822 24.4847 108.291 22.4913C109.76 20.4979 110.544 18.1542 110.544 15.7567C110.54 12.5429 109.13 9.46173 106.624 7.18921C104.117 4.91669 100.719 3.6384 97.1739 3.63477Z" fill="#CCCCCC"/>
<path d="M98.3288 0.801025H95.1946V3.79218H98.3288V0.801025Z" fill="#CCCCCC"/>
<path d="M103.918 2.01274L102.219 4.57666L104.906 6.04019L106.605 3.47627L103.918 2.01274Z" fill="#CCCCCC"/>
<path d="M110.594 6.91143L107.709 8.36157L109.228 10.8469L112.114 9.39675L110.594 6.91143Z" fill="#CCCCCC"/>
<path d="M109.416 20.5253L107.755 22.9351L110.553 24.5201L112.213 22.1103L109.416 20.5253Z" fill="#CCCCCC"/>
<path d="M83.7536 6.91141L82.2341 9.39673L85.1197 10.8469L86.6392 8.36155L83.7536 6.91141Z" fill="#CCCCCC"/>
<path d="M84.9327 20.5253L82.1348 22.1104L83.7957 24.5202L86.5936 22.9351L84.9327 20.5253Z" fill="#CCCCCC"/>
<path d="M90.4298 2.01279L87.7432 3.47632L89.4424 6.04023L92.129 4.57671L90.4298 2.01279Z" fill="#CCCCCC"/>
<path d="M98.3288 27.7214H95.1946V30.7126H98.3288V27.7214Z" fill="#CCCCCC"/>
<path d="M104.906 25.473L102.22 26.9365L103.919 29.5004L106.606 28.0369L104.906 25.473Z" fill="#CCCCCC"/>
<path d="M89.4424 25.4732L87.7432 28.0371L90.4297 29.5006L92.129 26.9367L89.4424 25.4732Z" fill="#CCCCCC"/>
<path d="M84.142 14.5603H80.3479V17.1028H84.142V14.5603Z" fill="#CCCCCC"/>
<path d="M110.206 17.1028H114V14.5603H110.206V17.1028Z" fill="#CCCCCC"/>
<path d="M47.3493 5.28766C47.4751 5.28766 47.6014 5.28965 47.728 5.29363C50.5372 5.38214 53.1958 6.46724 55.1313 8.3153C57.0668 10.1634 58.1244 12.6266 58.0765 15.1747C58.0287 17.7227 56.8791 20.1519 54.8752 21.9391C52.8714 23.7263 50.1736 24.7287 47.3627 24.7304C47.2369 24.7304 47.1106 24.7284 46.984 24.7244C44.1748 24.6359 41.5162 23.5508 39.5807 21.7027C37.6452 19.8547 36.5876 17.3914 36.6355 14.8434C36.6833 12.2953 37.8329 9.86615 39.8368 8.07894C41.8406 6.29172 44.5383 5.28936 47.3493 5.28766ZM47.35 2.88696V5.28766L47.3498 2.88696C43.8445 2.88844 40.48 4.13791 37.9808 6.36633C35.4816 8.59475 34.0476 11.6239 33.9876 14.8014C33.9275 17.979 35.2463 21.0509 37.6599 23.3555C40.0735 25.6602 43.3889 27.0134 46.8921 27.1237C47.0485 27.1286 47.2068 27.1311 47.3627 27.1311C50.868 27.1295 54.2324 25.8799 56.7316 23.6514C59.2307 21.423 60.6646 18.3939 60.7245 15.2163C60.7844 12.0388 59.4656 8.96701 57.052 6.66238C54.6384 4.35776 51.3231 3.00463 47.8199 2.89437C47.6635 2.88946 47.5055 2.88696 47.35 2.88696Z" fill="#CCCCCC"/>
<path d="M45.9499 -9.47054e-05L45.8354 2.98926L48.9678 3.08785L49.0823 0.0984926L45.9499 -9.47054e-05Z" fill="#CCCCCC"/>
<path d="M54.6225 1.48571L52.8262 3.99463L55.4551 5.54179L57.2514 3.03287L54.6225 1.48571Z" fill="#CCCCCC"/>
<path d="M61.1068 6.59121L58.1675 7.94971L59.591 10.4813L62.5303 9.12282L61.1068 6.59121Z" fill="#CCCCCC"/>
<path d="M59.4074 20.1595L57.6553 22.5156L60.3908 24.1877L62.143 21.8316L59.4074 20.1595Z" fill="#CCCCCC"/>
<path d="M34.2819 5.74684L32.6682 8.18286L35.4965 9.72289L37.1102 7.28687L34.2819 5.74684Z" fill="#CCCCCC"/>
<path d="M34.9391 19.3894L32.0823 20.8855L33.65 23.3461L36.5068 21.85L34.9391 19.3894Z" fill="#CCCCCC"/>
<path d="M41.1416 1.06107L38.4006 2.43921L40.0007 5.05503L42.7417 3.67689L41.1416 1.06107Z" fill="#CCCCCC"/>
<path d="M44.9196 26.904L44.8052 29.8933L47.9375 29.9919L48.052 27.0025L44.9196 26.904Z" fill="#CCCCCC"/>
<path d="M54.7112 24.9629L51.9702 26.3411L53.5703 28.9569L56.3113 27.5787L54.7112 24.9629Z" fill="#CCCCCC"/>
<path d="M39.257 24.4764L37.4607 26.9854L40.0896 28.5325L41.886 26.0236L39.257 24.4764Z" fill="#CCCCCC"/>
<path d="M34.3778 13.4035L30.5859 13.2842L30.4886 15.8251L34.2805 15.9445L34.3778 13.4035Z" fill="#CCCCCC"/>
<path d="M60.3285 16.764L64.1204 16.8833L64.2177 14.3424L60.4258 14.223L60.3285 16.764Z" fill="#CCCCCC"/>
</g>
<defs>
<linearGradient id="paint0_linear" x1="47.3529" y1="25.6615" x2="47.3529" y2="4.33032" gradientUnits="userSpaceOnUse">
<stop stop-color="#808080" stop-opacity="0.25"/>
<stop offset="0.53514" stop-color="#808080" stop-opacity="0.12"/>
<stop offset="1" stop-color="#808080" stop-opacity="0.1"/>
</linearGradient>
<linearGradient id="paint1_linear" x1="14763.7" y1="3996.24" x2="14763.7" y2="774.13" gradientUnits="userSpaceOnUse">
<stop stop-color="#808080" stop-opacity="0.25"/>
<stop offset="0.53514" stop-color="#808080" stop-opacity="0.12"/>
<stop offset="1" stop-color="#808080" stop-opacity="0.1"/>
</linearGradient>
<linearGradient id="paint2_linear" x1="10976.2" y1="6656.87" x2="10976.2" y2="3434.77" gradientUnits="userSpaceOnUse">
<stop stop-color="#808080" stop-opacity="0.25"/>
<stop offset="0.53514" stop-color="#808080" stop-opacity="0.12"/>
<stop offset="1" stop-color="#808080" stop-opacity="0.1"/>
</linearGradient>
<clipPath id="clip0">
<rect width="114" height="111" fill="white"/>
</clipPath>
</defs>
</svg>
